<?xml version="1.0"?>
<svg xmlns="http://www.w3.org/2000/svg" width="1200" height="800" viewBox="0 0 1200 800">
  <line x1="328.9" y1="668.4" x2="341.7" y2="652.9" stroke="#FAF8F6" stroke-width="0.875" stroke-linecap="round"></line>
  <line x1="665.5" y1="122.8" x2="690.4" y2="117.2" stroke="#FAF8F6" stroke-width="0.875" stroke-linecap="round"></line>
  <line x1="690.4" y1="117.2" x2="716.9" y2="130.3" stroke="#FAF8F6" stroke-width="0.875" stroke-linecap="round"></line>
  <line x1="738.8" y1="101.7" x2="716.9" y2="130.3" stroke="#FAF8F6" stroke-width="0.875" stroke-linecap="round"></line>
  <line x1="355.5" y1="535.7" x2="384.5" y2="503.6" stroke="#FAF8F6" stroke-width="0.875" stroke-linecap="round"></line>
  <line x1="690.4" y1="117.2" x2="738.8" y2="101.7" stroke="#FAF8F6" stroke-width="0.875" stroke-linecap="round"></line>
  <line x1="992.9" y1="543.5" x2="963.1" y2="501.6" stroke="#FAF8F6" stroke-width="0.875" stroke-linecap="round"></line>
  <line x1="665.5" y1="122.8" x2="716.9" y2="130.3" stroke="#FAF8F6" stroke-width="0.875" stroke-linecap="round"></line>
  <line x1="665.5" y1="122.8" x2="609.3" y2="134.8" stroke="#FAF8F6" stroke-width="0.875" stroke-linecap="round"></line>
  <line x1="864.4" y1="122.5" x2="816.7" y2="163.4" stroke="#FAF8F6" stroke-width="0.875" stroke-linecap="round"></line>
  <line x1="355.5" y1="535.7" x2="283.8" y2="539.3" stroke="#FAF8F6" stroke-width="0.875" stroke-linecap="round"></line>
  <line x1="604.1" y1="212.1" x2="566.6" y2="274.6" stroke="#FAF8F6" stroke-width="0.875" stroke-linecap="round"></line>
  <line x1="604.1" y1="212.1" x2="609.3" y2="134.8" stroke="#FAF8F6" stroke-width="0.875" stroke-linecap="round"></line>
  <line x1="566.6" y1="274.6" x2="483" y2="286.4" stroke="#FAF8F6" stroke-width="0.875" stroke-linecap="round"></line>
  <line x1="1042.5" y1="616.5" x2="992.9" y2="543.5" stroke="#FAF8F6" stroke-width="0.875" stroke-linecap="round"></line>
  <line x1="874.2" y1="454.8" x2="819.1" y2="525.6" stroke="#FAF8F6" stroke-width="0.875" stroke-linecap="round"></line>
  <line x1="788.9" y1="423.3" x2="874.2" y2="454.8" stroke="#FAF8F6" stroke-width="0.875" stroke-linecap="round"></line>
  <line x1="194.2" y1="572.2" x2="283.8" y2="539.3" stroke="#FAF8F6" stroke-width="0.875" stroke-linecap="round"></line>
  <line x1="412.4" y1="351.3" x2="483" y2="286.4" stroke="#FAF8F6" stroke-width="0.875" stroke-linecap="round"></line>
  <line x1="738.8" y1="101.7" x2="816.7" y2="163.4" stroke="#FAF8F6" stroke-width="0.875" stroke-linecap="round"></line>
  <line x1="963.1" y1="501.6" x2="874.2" y2="454.8" stroke="#FAF8F6" stroke-width="0.875" stroke-linecap="round"></line>
  <line x1="823.8" y1="628" x2="819.1" y2="525.6" stroke="#FAF8F6" stroke-width="0.875" stroke-linecap="round"></line>
  <line x1="1042.5" y1="616.5" x2="1102.9" y2="528.9" stroke="#FAF8F6" stroke-width="0.875" stroke-linecap="round"></line>
  <line x1="788.9" y1="423.3" x2="819.1" y2="525.6" stroke="#FAF8F6" stroke-width="0.875" stroke-linecap="round"></line>
  <line x1="283.8" y1="539.3" x2="384.5" y2="503.6" stroke="#FAF8F6" stroke-width="0.875" stroke-linecap="round"></line>
  <line x1="992.9" y1="543.5" x2="1102.9" y2="528.9" stroke="#FAF8F6" stroke-width="0.875" stroke-linecap="round"></line>
  <line x1="933.3" y1="372.7" x2="862.1" y2="283.1" stroke="#FAF8F6" stroke-width="0.875" stroke-linecap="round"></line>
  <line x1="355.5" y1="535.7" x2="341.7" y2="652.9" stroke="#FAF8F6" stroke-width="0.875" stroke-linecap="round"></line>
  <line x1="72.8" y1="534" x2="194.2" y2="572.2" stroke="#FAF8F6" stroke-width="0.875" stroke-linecap="round"></line>
  <line x1="862.1" y1="283.1" x2="816.7" y2="163.4" stroke="#FAF8F6" stroke-width="0.875" stroke-linecap="round"></line>
  <line x1="933.3" y1="372.7" x2="963.1" y2="501.6" stroke="#FAF8F6" stroke-width="0.875" stroke-linecap="round"></line>
  <line x1="604.1" y1="212.1" x2="483" y2="286.4" stroke="#FAF8F6" stroke-width="0.875" stroke-linecap="round"></line>
  <line x1="566.6" y1="274.6" x2="609.3" y2="134.8" stroke="#FAF8F6" stroke-width="0.875" stroke-linecap="round"></line>
  <line x1="788.9" y1="423.3" x2="933.3" y2="372.7" stroke="#FAF8F6" stroke-width="0.875" stroke-linecap="round"></line>
  <line x1="412.4" y1="351.3" x2="384.5" y2="503.6" stroke="#FAF8F6" stroke-width="0.875" stroke-linecap="round"></line>
  <line x1="862.1" y1="283.1" x2="864.4" y2="122.5" stroke="#FAF8F6" stroke-width="0.875" stroke-linecap="round"></line>
  <line x1="194.2" y1="572.2" x2="328.9" y2="668.4" stroke="#FAF8F6" stroke-width="0.875" stroke-linecap="round"></line>
  <line x1="823.8" y1="628" x2="654" y2="657" stroke="#FAF8F6" stroke-width="0.875" stroke-linecap="round"></line>
  <line x1="1042.5" y1="616.5" x2="823.8" y2="628" stroke="#FAF8F6" stroke-width="0.875" stroke-linecap="round"></line>
  <circle cx="665.5" cy="122.8" r="2.1" fill="#FAF8F6"></circle>
  <circle cx="412.4" cy="351.3" r="2.2" fill="#FAF8F6"></circle>
  <circle cx="690.4" cy="117.2" r="2.7" fill="#FAF8F6"></circle>
  <circle cx="1042.5" cy="616.5" r="2.9" fill="#FAF8F6"></circle>
  <circle cx="823.8" cy="628" r="2.2" fill="#FAF8F6"></circle>
  <circle cx="72.8" cy="534" r="3" fill="#FAF8F6"></circle>
  <circle cx="355.5" cy="535.7" r="2.1" fill="#FAF8F6"></circle>
  <circle cx="788.9" cy="423.3" r="2.9" fill="#FAF8F6"></circle>
  <circle cx="194.2" cy="572.2" r="2.5" fill="#FAF8F6"></circle>
  <circle cx="654" cy="657" r="2.5" fill="#FAF8F6"></circle>
  <circle cx="328.9" cy="668.4" r="2.7" fill="#FAF8F6"></circle>
  <circle cx="341.7" cy="652.9" r="2.4" fill="#FAF8F6"></circle>
  <circle cx="933.3" cy="372.7" r="2.8" fill="#FAF8F6"></circle>
  <circle cx="283.8" cy="539.3" r="2.8" fill="#FAF8F6"></circle>
  <circle cx="738.8" cy="101.7" r="2.7" fill="#FAF8F6"></circle>
  <circle cx="992.9" cy="543.5" r="2.2" fill="#FAF8F6"></circle>
  <circle cx="384.5" cy="503.6" r="2.1" fill="#FAF8F6"></circle>
  <circle cx="862.1" cy="283.1" r="2.5" fill="#FAF8F6"></circle>
  <circle cx="604.1" cy="212.1" r="2.7" fill="#FAF8F6"></circle>
  <circle cx="963.1" cy="501.6" r="2.5" fill="#FAF8F6"></circle>
  <circle cx="566.6" cy="274.6" r="2.3" fill="#FAF8F6"></circle>
  <circle cx="874.2" cy="454.8" r="2.5" fill="#FAF8F6"></circle>
  <circle cx="716.9" cy="130.3" r="3" fill="#FAF8F6"></circle>
  <circle cx="609.3" cy="134.8" r="3.3" fill="#FAF8F6"></circle>
  <circle cx="819.1" cy="525.6" r="2.6" fill="#FAF8F6"></circle>
  <circle cx="864.4" cy="122.5" r="2.3" fill="#FAF8F6"></circle>
  <circle cx="75.2" cy="224.9" r="3.4" fill="#FAF8F6"></circle>
  <circle cx="1102.9" cy="528.9" r="2.4" fill="#FAF8F6"></circle>
  <circle cx="816.7" cy="163.4" r="3" fill="#FAF8F6"></circle>
  <circle cx="483" cy="286.4" r="3.3" fill="#FAF8F6"></circle>
</svg>