<?xml version="1.0"?>
<svg xmlns="http://www.w3.org/2000/svg" width="1200" height="800" viewBox="0 0 1200 800">
  <line x1="493.8" y1="627.6" x2="502.8" y2="651.9" stroke="#2D3748" stroke-width="0.875" stroke-linecap="round"></line>
  <line x1="247.9" y1="372.3" x2="266.7" y2="406" stroke="#2D3748" stroke-width="0.875" stroke-linecap="round"></line>
  <line x1="628" y1="685.9" x2="627.8" y2="647" stroke="#2D3748" stroke-width="0.875" stroke-linecap="round"></line>
  <line x1="212.9" y1="101.9" x2="184.7" y2="135.8" stroke="#2D3748" stroke-width="0.875" stroke-linecap="round"></line>
  <line x1="151.6" y1="359.9" x2="179.6" y2="409.7" stroke="#2D3748" stroke-width="0.875" stroke-linecap="round"></line>
  <line x1="180.3" y1="195.2" x2="136.8" y2="233.2" stroke="#2D3748" stroke-width="0.875" stroke-linecap="round"></line>
  <line x1="184.7" y1="135.8" x2="127.3" y2="127.6" stroke="#2D3748" stroke-width="0.875" stroke-linecap="round"></line>
  <line x1="180.3" y1="195.2" x2="184.7" y2="135.8" stroke="#2D3748" stroke-width="0.875" stroke-linecap="round"></line>
  <line x1="961.6" y1="186.9" x2="1028.3" y2="159.3" stroke="#2D3748" stroke-width="0.875" stroke-linecap="round"></line>
  <line x1="207.8" y1="307.8" x2="247.9" y2="372.3" stroke="#2D3748" stroke-width="0.875" stroke-linecap="round"></line>
  <line x1="207.8" y1="307.8" x2="151.6" y2="359.9" stroke="#2D3748" stroke-width="0.875" stroke-linecap="round"></line>
  <line x1="247.9" y1="372.3" x2="179.6" y2="409.7" stroke="#2D3748" stroke-width="0.875" stroke-linecap="round"></line>
  <line x1="220" y1="479.8" x2="179.6" y2="409.7" stroke="#2D3748" stroke-width="0.875" stroke-linecap="round"></line>
  <line x1="180.3" y1="195.2" x2="127.3" y2="127.6" stroke="#2D3748" stroke-width="0.875" stroke-linecap="round"></line>
  <line x1="266.7" y1="406" x2="220" y2="479.8" stroke="#2D3748" stroke-width="0.875" stroke-linecap="round"></line>
  <line x1="451.4" y1="281.5" x2="435" y2="195" stroke="#2D3748" stroke-width="0.875" stroke-linecap="round"></line>
  <line x1="212.9" y1="101.9" x2="127.3" y2="127.6" stroke="#2D3748" stroke-width="0.875" stroke-linecap="round"></line>
  <line x1="684.8" y1="379.3" x2="765.9" y2="417.2" stroke="#2D3748" stroke-width="0.875" stroke-linecap="round"></line>
  <line x1="1028.3" y1="159.3" x2="1105.1" y2="93.6" stroke="#2D3748" stroke-width="0.875" stroke-linecap="round"></line>
  <line x1="207.8" y1="307.8" x2="136.8" y2="233.2" stroke="#2D3748" stroke-width="0.875" stroke-linecap="round"></line>
  <line x1="212.9" y1="101.9" x2="328.3" y2="110" stroke="#2D3748" stroke-width="0.875" stroke-linecap="round"></line>
  <line x1="1082.2" y1="268" x2="1028.3" y2="159.3" stroke="#2D3748" stroke-width="0.875" stroke-linecap="round"></line>
  <line x1="266.7" y1="406" x2="151.6" y2="359.9" stroke="#2D3748" stroke-width="0.875" stroke-linecap="round"></line>
  <line x1="627.8" y1="647" x2="502.8" y2="651.9" stroke="#2D3748" stroke-width="0.875" stroke-linecap="round"></line>
  <line x1="837.7" y1="314.7" x2="765.9" y2="417.2" stroke="#2D3748" stroke-width="0.875" stroke-linecap="round"></line>
  <line x1="1082.2" y1="268" x2="977.1" y2="337.6" stroke="#2D3748" stroke-width="0.875" stroke-linecap="round"></line>
  <line x1="628" y1="685.9" x2="502.8" y2="651.9" stroke="#2D3748" stroke-width="0.875" stroke-linecap="round"></line>
  <line x1="627.8" y1="647" x2="493.8" y2="627.6" stroke="#2D3748" stroke-width="0.875" stroke-linecap="round"></line>
  <line x1="328.3" y1="110" x2="435" y2="195" stroke="#2D3748" stroke-width="0.875" stroke-linecap="round"></line>
  <line x1="837.7" y1="314.7" x2="977.1" y2="337.6" stroke="#2D3748" stroke-width="0.875" stroke-linecap="round"></line>
  <line x1="1082.2" y1="268" x2="961.6" y2="186.9" stroke="#2D3748" stroke-width="0.875" stroke-linecap="round"></line>
  <line x1="628" y1="685.9" x2="493.8" y2="627.6" stroke="#2D3748" stroke-width="0.875" stroke-linecap="round"></line>
  <line x1="961.6" y1="186.9" x2="977.1" y2="337.6" stroke="#2D3748" stroke-width="0.875" stroke-linecap="round"></line>
  <line x1="476.5" y1="441.5" x2="451.4" y2="281.5" stroke="#2D3748" stroke-width="0.875" stroke-linecap="round"></line>
  <line x1="684.8" y1="379.3" x2="837.7" y2="314.7" stroke="#2D3748" stroke-width="0.875" stroke-linecap="round"></line>
  <line x1="328.3" y1="110" x2="451.4" y2="281.5" stroke="#2D3748" stroke-width="0.875" stroke-linecap="round"></line>
  <line x1="684.8" y1="379.3" x2="476.5" y2="441.5" stroke="#2D3748" stroke-width="0.875" stroke-linecap="round"></line>
  <line x1="476.5" y1="441.5" x2="435" y2="195" stroke="#2D3748" stroke-width="0.875" stroke-linecap="round"></line>
  <circle cx="684.8" cy="379.3" r="3" fill="#2D3748"></circle>
  <circle cx="628" cy="685.9" r="2.7" fill="#2D3748"></circle>
  <circle cx="817.8" cy="91.1" r="2.4" fill="#2D3748"></circle>
  <circle cx="837.7" cy="314.7" r="2.8" fill="#2D3748"></circle>
  <circle cx="1082.2" cy="268" r="3.1" fill="#2D3748"></circle>
  <circle cx="476.5" cy="441.5" r="3.1" fill="#2D3748"></circle>
  <circle cx="212.9" cy="101.9" r="2.2" fill="#2D3748"></circle>
  <circle cx="180.3" cy="195.2" r="3.2" fill="#2D3748"></circle>
  <circle cx="207.8" cy="307.8" r="2.7" fill="#2D3748"></circle>
  <circle cx="627.8" cy="647" r="2.6" fill="#2D3748"></circle>
  <circle cx="328.3" cy="110" r="3.4" fill="#2D3748"></circle>
  <circle cx="247.9" cy="372.3" r="2.7" fill="#2D3748"></circle>
  <circle cx="765.9" cy="417.2" r="3.1" fill="#2D3748"></circle>
  <circle cx="136.8" cy="233.2" r="3.4" fill="#2D3748"></circle>
  <circle cx="493.8" cy="627.6" r="2.7" fill="#2D3748"></circle>
  <circle cx="1074.1" cy="719.2" r="2.8" fill="#2D3748"></circle>
  <circle cx="451.4" cy="281.5" r="3.3" fill="#2D3748"></circle>
  <circle cx="961.6" cy="186.9" r="3.4" fill="#2D3748"></circle>
  <circle cx="266.7" cy="406" r="3.2" fill="#2D3748"></circle>
  <circle cx="151.6" cy="359.9" r="3.1" fill="#2D3748"></circle>
  <circle cx="220" cy="479.8" r="2.6" fill="#2D3748"></circle>
  <circle cx="1028.3" cy="159.3" r="2.4" fill="#2D3748"></circle>
  <circle cx="1105.1" cy="93.6" r="3" fill="#2D3748"></circle>
  <circle cx="184.7" cy="135.8" r="2.7" fill="#2D3748"></circle>
  <circle cx="435" cy="195" r="2.6" fill="#2D3748"></circle>
  <circle cx="502.8" cy="651.9" r="2.4" fill="#2D3748"></circle>
  <circle cx="347.4" cy="720.8" r="3.1" fill="#2D3748"></circle>
  <circle cx="127.3" cy="127.6" r="2.3" fill="#2D3748"></circle>
  <circle cx="179.6" cy="409.7" r="2.1" fill="#2D3748"></circle>
  <circle cx="977.1" cy="337.6" r="2.9" fill="#2D3748"></circle>
</svg>