<?xml version="1.0"?>
<svg xmlns="http://www.w3.org/2000/svg" width="1200" height="800" viewBox="0 0 1200 800">
  <path d="M -10.0,53.2 C 12.6,51.6 80.4,45.0 125.6,43.3 C 170.7,41.6 215.9,42.0 261.1,43.0 C 306.3,44.0 351.5,47.9 396.7,49.3 C 441.9,50.7 487.0,55.1 532.2,51.6 C 577.4,48.2 622.6,28.1 667.8,28.7 C 713.0,29.2 758.1,53.2 803.3,55.0 C 848.5,56.8 893.7,43.9 938.9,39.6 C 984.1,35.3 1029.3,30.4 1074.4,29.2 C 1119.6,28.1 1187.4,32.1 1210.0,32.7" stroke="#FAF8F6" stroke-width="0.75" fill="none" stroke-linecap="round"></path>
  <path d="M -10.0,81.4 C 12.6,79.7 80.4,73.0 125.6,71.3 C 170.7,69.5 215.9,71.0 261.1,71.0 C 306.3,71.0 351.5,70.5 396.7,71.4 C 441.9,72.3 487.0,74.3 532.2,76.5 C 577.4,78.7 622.6,82.0 667.8,84.6 C 713.0,87.2 758.1,94.9 803.3,92.4 C 848.5,89.8 893.7,72.0 938.9,69.2 C 984.1,66.5 1029.3,76.0 1074.4,75.9 C 1119.6,75.9 1187.4,70.1 1210.0,68.9" stroke="#FAF8F6" stroke-width="0.75" fill="none" stroke-linecap="round"></path>
  <path d="M -10.0,121.6 C 12.6,119.5 80.4,111.5 125.6,109.1 C 170.7,106.7 215.9,107.3 261.1,107.2 C 306.3,107.1 351.5,106.4 396.7,108.5 C 441.9,110.7 487.0,118.7 532.2,120.2 C 577.4,121.7 622.6,117.3 667.8,117.5 C 713.0,117.6 758.1,121.1 803.3,121.0 C 848.5,120.9 893.7,117.2 938.9,116.9 C 984.1,116.5 1029.3,119.9 1074.4,118.9 C 1119.6,118.0 1187.4,112.5 1210.0,111.2" stroke="#FAF8F6" stroke-width="0.75" fill="none" stroke-linecap="round"></path>
  <path d="M -10.0,151.7 C 12.6,150.6 80.4,146.8 125.6,145.2 C 170.7,143.6 215.9,142.0 261.1,142.1 C 306.3,142.1 351.5,144.6 396.7,145.6 C 441.9,146.5 487.0,146.3 532.2,147.6 C 577.4,148.9 622.6,152.9 667.8,153.2 C 713.0,153.6 758.1,150.8 803.3,149.6 C 848.5,148.4 893.7,147.3 938.9,146.2 C 984.1,145.1 1029.3,142.5 1074.4,142.9 C 1119.6,143.3 1187.4,147.6 1210.0,148.6" stroke="#FAF8F6" stroke-width="0.75" fill="none" stroke-linecap="round"></path>
  <path d="M -10.0,166.3 C 12.6,166.5 80.4,168.0 125.6,167.5 C 170.7,166.9 215.9,163.2 261.1,162.9 C 306.3,162.6 351.5,164.9 396.7,165.8 C 441.9,166.7 487.0,167.7 532.2,168.2 C 577.4,168.6 622.6,169.0 667.8,168.7 C 713.0,168.5 758.1,167.9 803.3,166.7 C 848.5,165.5 893.7,161.2 938.9,161.5 C 984.1,161.7 1029.3,166.3 1074.4,168.1 C 1119.6,169.8 1187.4,171.5 1210.0,172.2" stroke="#FAF8F6" stroke-width="0.75" fill="none" stroke-linecap="round"></path>
  <path d="M -10.0,177.7 C 12.6,178.0 80.4,179.7 125.6,179.8 C 170.7,179.9 215.9,177.2 261.1,178.2 C 306.3,179.1 351.5,184.5 396.7,185.6 C 441.9,186.8 487.0,185.9 532.2,185.1 C 577.4,184.2 622.6,181.6 667.8,180.3 C 713.0,179.0 758.1,177.5 803.3,177.6 C 848.5,177.6 893.7,180.4 938.9,180.5 C 984.1,180.6 1029.3,178.7 1074.4,178.2 C 1119.6,177.7 1187.4,177.7 1210.0,177.6" stroke="#FAF8F6" stroke-width="0.75" fill="none" stroke-linecap="round"></path>
  <path d="M -10.0,192.4 C 12.6,192.7 80.4,193.6 125.6,194.1 C 170.7,194.7 215.9,195.8 261.1,195.6 C 306.3,195.5 351.5,193.8 396.7,193.4 C 441.9,192.9 487.0,193.1 532.2,192.8 C 577.4,192.4 622.6,190.9 667.8,191.1 C 713.0,191.2 758.1,192.7 803.3,193.8 C 848.5,194.8 893.7,196.9 938.9,197.5 C 984.1,198.0 1029.3,197.0 1074.4,197.1 C 1119.6,197.1 1187.4,197.7 1210.0,197.8" stroke="#FAF8F6" stroke-width="0.75" fill="none" stroke-linecap="round"></path>
  <path d="M -10.0,203.7 C 12.6,204.0 80.4,204.4 125.6,205.5 C 170.7,206.5 215.9,209.9 261.1,210.1 C 306.3,210.4 351.5,207.7 396.7,207.1 C 441.9,206.4 487.0,205.8 532.2,206.2 C 577.4,206.7 622.6,209.8 667.8,209.8 C 713.0,209.7 758.1,206.3 803.3,206.0 C 848.5,205.7 893.7,208.2 938.9,208.0 C 984.1,207.8 1029.3,204.8 1074.4,204.8 C 1119.6,204.7 1187.4,207.3 1210.0,207.8" stroke="#FAF8F6" stroke-width="0.75" fill="none" stroke-linecap="round"></path>
  <path d="M -10.0,218.4 C 12.6,217.8 80.4,214.0 125.6,214.6 C 170.7,215.3 215.9,221.2 261.1,222.4 C 306.3,223.7 351.5,223.5 396.7,222.2 C 441.9,220.8 487.0,215.6 532.2,214.2 C 577.4,212.9 622.6,213.7 667.8,214.2 C 713.0,214.7 758.1,216.5 803.3,217.3 C 848.5,218.1 893.7,218.4 938.9,218.8 C 984.1,219.2 1029.3,220.7 1074.4,219.9 C 1119.6,219.1 1187.4,214.8 1210.0,213.8" stroke="#FAF8F6" stroke-width="0.75" fill="none" stroke-linecap="round"></path>
  <path d="M -10.0,248.5 C 12.6,248.2 80.4,247.4 125.6,246.6 C 170.7,245.9 215.9,243.9 261.1,244.2 C 306.3,244.4 351.5,247.2 396.7,247.9 C 441.9,248.7 487.0,249.2 532.2,248.7 C 577.4,248.2 622.6,244.1 667.8,245.1 C 713.0,246.2 758.1,255.5 803.3,255.1 C 848.5,254.7 893.7,245.0 938.9,242.5 C 984.1,239.9 1029.3,239.9 1074.4,239.8 C 1119.6,239.7 1187.4,241.5 1210.0,241.8" stroke="#FAF8F6" stroke-width="0.75" fill="none" stroke-linecap="round"></path>
  <path d="M -10.0,314.9 C 12.6,311.3 80.4,295.7 125.6,293.4 C 170.7,291.0 215.9,298.2 261.1,300.8 C 306.3,303.4 351.5,310.2 396.7,309.2 C 441.9,308.2 487.0,295.9 532.2,294.9 C 577.4,293.9 622.6,303.6 667.8,303.0 C 713.0,302.4 758.1,294.2 803.3,291.5 C 848.5,288.8 893.7,282.4 938.9,286.7 C 984.1,291.0 1029.3,313.3 1074.4,317.2 C 1119.6,321.1 1187.4,311.3 1210.0,310.1" stroke="#FAF8F6" stroke-width="0.75" fill="none" stroke-linecap="round"></path>
  <path d="M -10.0,363.6 C 12.6,365.3 80.4,375.9 125.6,373.7 C 170.7,371.4 215.9,350.8 261.1,350.4 C 306.3,350.0 351.5,372.4 396.7,371.3 C 441.9,370.2 487.0,342.3 532.2,343.8 C 577.4,345.3 622.6,375.1 667.8,380.3 C 713.0,385.5 758.1,380.7 803.3,374.9 C 848.5,369.0 893.7,344.6 938.9,345.2 C 984.1,345.7 1029.3,373.7 1074.4,378.1 C 1119.6,382.5 1187.4,372.8 1210.0,371.8" stroke="#FAF8F6" stroke-width="0.75" fill="none" stroke-linecap="round"></path>
  <path d="M -10.0,417.1 C 12.6,418.7 80.4,424.9 125.6,426.7 C 170.7,428.4 215.9,430.2 261.1,427.5 C 306.3,424.8 351.5,409.8 396.7,410.6 C 441.9,411.4 487.0,429.5 532.2,432.4 C 577.4,435.3 622.6,428.5 667.8,428.0 C 713.0,427.5 758.1,432.1 803.3,429.4 C 848.5,426.7 893.7,414.1 938.9,411.7 C 984.1,409.4 1029.3,412.7 1074.4,415.3 C 1119.6,417.9 1187.4,425.4 1210.0,427.4" stroke="#FAF8F6" stroke-width="0.75" fill="none" stroke-linecap="round"></path>
  <path d="M -10.0,447.7 C 12.6,447.8 80.4,445.3 125.6,448.4 C 170.7,451.4 215.9,465.1 261.1,465.8 C 306.3,466.6 351.5,455.2 396.7,452.7 C 441.9,450.3 487.0,451.5 532.2,450.9 C 577.4,450.3 622.6,446.6 667.8,449.2 C 713.0,451.8 758.1,466.1 803.3,466.5 C 848.5,467.0 893.7,452.6 938.9,451.9 C 984.1,451.3 1029.3,461.7 1074.4,462.7 C 1119.6,463.7 1187.4,458.8 1210.0,458.0" stroke="#FAF8F6" stroke-width="0.75" fill="none" stroke-linecap="round"></path>
  <path d="M -10.0,492.8 C 12.6,493.1 80.4,494.4 125.6,494.5 C 170.7,494.6 215.9,496.2 261.1,493.3 C 306.3,490.5 351.5,477.2 396.7,477.4 C 441.9,477.7 487.0,492.9 532.2,495.0 C 577.4,497.1 622.6,491.4 667.8,490.0 C 713.0,488.7 758.1,488.7 803.3,486.9 C 848.5,485.2 893.7,480.4 938.9,479.4 C 984.1,478.4 1029.3,480.8 1074.4,481.0 C 1119.6,481.3 1187.4,481.1 1210.0,481.1" stroke="#FAF8F6" stroke-width="0.75" fill="none" stroke-linecap="round"></path>
  <path d="M -10.0,518.9 C 12.6,517.5 80.4,512.1 125.6,510.5 C 170.7,509.0 215.9,510.1 261.1,509.6 C 306.3,509.0 351.5,505.0 396.7,507.2 C 441.9,509.4 487.0,521.6 532.2,522.7 C 577.4,523.9 622.6,516.5 667.8,513.8 C 713.0,511.2 758.1,508.2 803.3,507.0 C 848.5,505.8 893.7,504.7 938.9,506.7 C 984.1,508.7 1029.3,517.6 1074.4,519.2 C 1119.6,520.7 1187.4,516.7 1210.0,516.3" stroke="#FAF8F6" stroke-width="0.75" fill="none" stroke-linecap="round"></path>
  <path d="M -10.0,551.2 C 12.6,552.2 80.4,557.0 125.6,557.5 C 170.7,558.0 215.9,554.8 261.1,554.2 C 306.3,553.7 351.5,555.2 396.7,553.9 C 441.9,552.7 487.0,546.1 532.2,546.9 C 577.4,547.6 622.6,556.5 667.8,558.4 C 713.0,560.3 758.1,560.4 803.3,558.1 C 848.5,555.8 893.7,541.7 938.9,544.7 C 984.1,547.7 1029.3,575.0 1074.4,576.2 C 1119.6,577.4 1187.4,555.9 1210.0,551.8" stroke="#FAF8F6" stroke-width="0.75" fill="none" stroke-linecap="round"></path>
  <path d="M -10.0,604.2 C 12.6,608.2 80.4,627.7 125.6,628.5 C 170.7,629.4 215.9,609.6 261.1,609.5 C 306.3,609.4 351.5,627.2 396.7,627.9 C 441.9,628.7 487.0,614.3 532.2,614.1 C 577.4,614.0 622.6,628.7 667.8,626.9 C 713.0,625.1 758.1,606.9 803.3,603.5 C 848.5,600.1 893.7,606.4 938.9,606.6 C 984.1,606.7 1029.3,604.4 1074.4,604.4 C 1119.6,604.4 1187.4,606.0 1210.0,606.4" stroke="#FAF8F6" stroke-width="0.75" fill="none" stroke-linecap="round"></path>
  <path d="M -10.0,681.2 C 12.6,683.1 80.4,691.8 125.6,692.2 C 170.7,692.6 215.9,683.4 261.1,683.6 C 306.3,683.8 351.5,691.5 396.7,693.5 C 441.9,695.4 487.0,697.1 532.2,695.2 C 577.4,693.3 622.6,685.7 667.8,682.1 C 713.0,678.4 758.1,676.6 803.3,673.4 C 848.5,670.2 893.7,659.4 938.9,662.9 C 984.1,666.3 1029.3,695.0 1074.4,694.2 C 1119.6,693.4 1187.4,664.3 1210.0,658.3" stroke="#FAF8F6" stroke-width="0.75" fill="none" stroke-linecap="round"></path>
  <path d="M -10.0,732.1 C 12.6,731.9 80.4,727.7 125.6,731.2 C 170.7,734.7 215.9,755.2 261.1,753.2 C 306.3,751.3 351.5,719.6 396.7,719.6 C 441.9,719.6 487.0,747.9 532.2,753.4 C 577.4,758.9 622.6,756.7 667.8,752.5 C 713.0,748.4 758.1,733.7 803.3,728.3 C 848.5,722.9 893.7,718.0 938.9,720.1 C 984.1,722.2 1029.3,736.8 1074.4,740.8 C 1119.6,744.8 1187.4,743.6 1210.0,744.1" stroke="#FAF8F6" stroke-width="0.75" fill="none" stroke-linecap="round"></path>
</svg>