<?xml version="1.0"?>
<svg xmlns="http://www.w3.org/2000/svg" width="1200" height="800" viewBox="0 0 1200 800">
  <path d="M -10.0,34.6 C 12.6,35.7 80.4,39.0 125.6,40.9 C 170.7,42.8 215.9,47.9 261.1,45.9 C 306.3,43.8 351.5,30.4 396.7,28.7 C 441.9,26.9 487.0,32.1 532.2,35.6 C 577.4,39.1 622.6,48.5 667.8,49.7 C 713.0,51.0 758.1,46.4 803.3,43.3 C 848.5,40.1 893.7,31.5 938.9,30.9 C 984.1,30.2 1029.3,39.6 1074.4,39.1 C 1119.6,38.6 1187.4,29.6 1210.0,27.6" stroke="#2D3748" stroke-width="0.75" fill="none" stroke-linecap="round"></path>
  <path d="M -10.0,69.9 C 12.6,73.3 80.4,89.7 125.6,90.4 C 170.7,91.0 215.9,76.9 261.1,74.0 C 306.3,71.0 351.5,71.8 396.7,72.6 C 441.9,73.5 487.0,78.0 532.2,79.3 C 577.4,80.5 622.6,81.2 667.8,80.0 C 713.0,78.7 758.1,73.2 803.3,71.5 C 848.5,69.9 893.7,67.7 938.9,70.1 C 984.1,72.5 1029.3,85.8 1074.4,85.9 C 1119.6,86.1 1187.4,73.4 1210.0,70.9" stroke="#2D3748" stroke-width="0.75" fill="none" stroke-linecap="round"></path>
  <path d="M -10.0,118.5 C 12.6,119.9 80.4,127.1 125.6,126.6 C 170.7,126.1 215.9,119.2 261.1,115.6 C 306.3,112.0 351.5,106.8 396.7,105.0 C 441.9,103.2 487.0,101.2 532.2,105.0 C 577.4,108.8 622.6,126.5 667.8,127.8 C 713.0,129.2 758.1,116.4 803.3,113.2 C 848.5,109.9 893.7,107.2 938.9,108.3 C 984.1,109.4 1029.3,119.0 1074.4,119.7 C 1119.6,120.3 1187.4,113.4 1210.0,112.1" stroke="#2D3748" stroke-width="0.75" fill="none" stroke-linecap="round"></path>
  <path d="M -10.0,152.2 C 12.6,151.5 80.4,147.5 125.6,147.6 C 170.7,147.7 215.9,152.8 261.1,152.9 C 306.3,153.0 351.5,149.3 396.7,148.1 C 441.9,146.9 487.0,145.5 532.2,145.6 C 577.4,145.6 622.6,148.6 667.8,148.5 C 713.0,148.5 758.1,144.9 803.3,145.1 C 848.5,145.2 893.7,148.9 938.9,149.5 C 984.1,150.1 1029.3,148.3 1074.4,148.7 C 1119.6,149.2 1187.4,151.5 1210.0,152.0" stroke="#2D3748" stroke-width="0.75" fill="none" stroke-linecap="round"></path>
  <path d="M -10.0,162.1 C 12.6,163.4 80.4,169.3 125.6,169.4 C 170.7,169.5 215.9,162.4 261.1,162.8 C 306.3,163.1 351.5,170.4 396.7,171.6 C 441.9,172.8 487.0,170.6 532.2,169.8 C 577.4,169.0 622.6,167.6 667.8,166.9 C 713.0,166.2 758.1,165.0 803.3,165.6 C 848.5,166.2 893.7,170.0 938.9,170.4 C 984.1,170.8 1029.3,168.0 1074.4,167.9 C 1119.6,167.8 1187.4,169.6 1210.0,169.9" stroke="#2D3748" stroke-width="0.75" fill="none" stroke-linecap="round"></path>
  <path d="M -10.0,185.1 C 12.6,184.7 80.4,183.5 125.6,182.5 C 170.7,181.5 215.9,178.9 261.1,179.2 C 306.3,179.5 351.5,183.4 396.7,184.1 C 441.9,184.8 487.0,184.0 532.2,183.3 C 577.4,182.5 622.6,179.8 667.8,179.5 C 713.0,179.2 758.1,180.5 803.3,181.7 C 848.5,182.9 893.7,186.9 938.9,186.6 C 984.1,186.2 1029.3,180.3 1074.4,179.8 C 1119.6,179.2 1187.4,182.7 1210.0,183.3" stroke="#2D3748" stroke-width="0.75" fill="none" stroke-linecap="round"></path>
  <path d="M -10.0,198.0 C 12.6,197.5 80.4,196.0 125.6,194.7 C 170.7,193.3 215.9,189.4 261.1,190.0 C 306.3,190.5 351.5,196.6 396.7,198.0 C 441.9,199.3 487.0,198.8 532.2,198.1 C 577.4,197.5 622.6,195.2 667.8,193.9 C 713.0,192.6 758.1,189.9 803.3,190.3 C 848.5,190.8 893.7,195.4 938.9,196.7 C 984.1,198.0 1029.3,199.0 1074.4,198.1 C 1119.6,197.2 1187.4,192.6 1210.0,191.5" stroke="#2D3748" stroke-width="0.75" fill="none" stroke-linecap="round"></path>
  <path d="M -10.0,206.6 C 12.6,207.2 80.4,211.0 125.6,210.6 C 170.7,210.1 215.9,204.1 261.1,203.7 C 306.3,203.3 351.5,208.4 396.7,208.0 C 441.9,207.7 487.0,202.8 532.2,201.7 C 577.4,200.6 622.6,200.9 667.8,201.6 C 713.0,202.3 758.1,205.4 803.3,205.8 C 848.5,206.3 893.7,204.3 938.9,204.5 C 984.1,204.7 1029.3,207.5 1074.4,207.1 C 1119.6,206.8 1187.4,203.1 1210.0,202.3" stroke="#2D3748" stroke-width="0.75" fill="none" stroke-linecap="round"></path>
  <path d="M -10.0,215.6 C 12.6,216.2 80.4,218.5 125.6,219.4 C 170.7,220.3 215.9,221.0 261.1,221.0 C 306.3,220.9 351.5,218.8 396.7,219.0 C 441.9,219.2 487.0,222.2 532.2,222.1 C 577.4,221.9 622.6,218.9 667.8,218.3 C 713.0,217.7 758.1,219.2 803.3,218.5 C 848.5,217.8 893.7,213.8 938.9,214.0 C 984.1,214.1 1029.3,219.3 1074.4,219.6 C 1119.6,219.8 1187.4,216.0 1210.0,215.3" stroke="#2D3748" stroke-width="0.75" fill="none" stroke-linecap="round"></path>
  <path d="M -10.0,243.2 C 12.6,242.2 80.4,235.0 125.6,237.6 C 170.7,240.1 215.9,258.5 261.1,258.3 C 306.3,258.2 351.5,237.6 396.7,236.6 C 441.9,235.7 487.0,252.0 532.2,252.6 C 577.4,253.1 622.6,242.4 667.8,240.0 C 713.0,237.6 758.1,238.5 803.3,238.1 C 848.5,237.6 893.7,236.3 938.9,237.2 C 984.1,238.1 1029.3,240.4 1074.4,243.6 C 1119.6,246.8 1187.4,254.4 1210.0,256.5" stroke="#2D3748" stroke-width="0.75" fill="none" stroke-linecap="round"></path>
  <path d="M -10.0,284.0 C 12.6,289.8 80.4,317.0 125.6,319.1 C 170.7,321.2 215.9,298.7 261.1,296.6 C 306.3,294.4 351.5,308.6 396.7,306.5 C 441.9,304.4 487.0,282.4 532.2,284.0 C 577.4,285.6 622.6,313.3 667.8,316.1 C 713.0,319.0 758.1,303.9 803.3,301.2 C 848.5,298.5 893.7,298.0 938.9,300.0 C 984.1,302.0 1029.3,310.4 1074.4,313.2 C 1119.6,316.1 1187.4,316.5 1210.0,317.1" stroke="#2D3748" stroke-width="0.75" fill="none" stroke-linecap="round"></path>
  <path d="M -10.0,376.7 C 12.6,375.1 80.4,369.8 125.6,367.1 C 170.7,364.4 215.9,361.2 261.1,360.6 C 306.3,360.0 351.5,360.5 396.7,363.5 C 441.9,366.5 487.0,381.4 532.2,378.6 C 577.4,375.7 622.6,346.8 667.8,346.3 C 713.0,345.9 758.1,376.8 803.3,375.9 C 848.5,374.9 893.7,339.9 938.9,340.8 C 984.1,341.6 1029.3,374.3 1074.4,381.0 C 1119.6,387.6 1187.4,380.9 1210.0,380.9" stroke="#2D3748" stroke-width="0.75" fill="none" stroke-linecap="round"></path>
  <path d="M -10.0,426.7 C 12.6,424.6 80.4,415.3 125.6,413.9 C 170.7,412.4 215.9,419.5 261.1,418.2 C 306.3,416.9 351.5,406.3 396.7,405.8 C 441.9,405.2 487.0,412.1 532.2,415.0 C 577.4,417.9 622.6,421.6 667.8,423.2 C 713.0,424.7 758.1,424.0 803.3,424.4 C 848.5,424.8 893.7,428.4 938.9,425.3 C 984.1,422.2 1029.3,408.3 1074.4,405.7 C 1119.6,403.0 1187.4,408.6 1210.0,409.2" stroke="#2D3748" stroke-width="0.75" fill="none" stroke-linecap="round"></path>
  <path d="M -10.0,449.4 C 12.6,449.9 80.4,451.0 125.6,452.2 C 170.7,453.4 215.9,456.6 261.1,456.5 C 306.3,456.5 351.5,452.5 396.7,451.8 C 441.9,451.2 487.0,450.0 532.2,452.5 C 577.4,455.0 622.6,466.8 667.8,466.9 C 713.0,467.1 758.1,455.0 803.3,453.3 C 848.5,451.6 893.7,455.7 938.9,457.0 C 984.1,458.2 1029.3,461.3 1074.4,460.7 C 1119.6,460.1 1187.4,454.7 1210.0,453.5" stroke="#2D3748" stroke-width="0.75" fill="none" stroke-linecap="round"></path>
  <path d="M -10.0,489.7 C 12.6,490.7 80.4,497.2 125.6,495.7 C 170.7,494.2 215.9,482.6 261.1,480.6 C 306.3,478.5 351.5,482.2 396.7,483.6 C 441.9,484.9 487.0,488.1 532.2,488.7 C 577.4,489.4 622.6,487.9 667.8,487.4 C 713.0,486.9 758.1,485.1 803.3,485.5 C 848.5,486.0 893.7,489.9 938.9,490.1 C 984.1,490.3 1029.3,488.2 1074.4,486.6 C 1119.6,485.0 1187.4,481.5 1210.0,480.5" stroke="#2D3748" stroke-width="0.75" fill="none" stroke-linecap="round"></path>
  <path d="M -10.0,514.7 C 12.6,514.0 80.4,509.6 125.6,510.2 C 170.7,510.8 215.9,518.0 261.1,518.4 C 306.3,518.8 351.5,512.6 396.7,512.8 C 441.9,512.9 487.0,520.1 532.2,519.1 C 577.4,518.2 622.6,509.2 667.8,506.9 C 713.0,504.6 758.1,503.4 803.3,505.4 C 848.5,507.5 893.7,518.2 938.9,519.3 C 984.1,520.4 1029.3,512.1 1074.4,512.0 C 1119.6,511.9 1187.4,517.7 1210.0,518.8" stroke="#2D3748" stroke-width="0.75" fill="none" stroke-linecap="round"></path>
  <path d="M -10.0,546.6 C 12.6,548.8 80.4,556.2 125.6,559.8 C 170.7,563.3 215.9,567.4 261.1,567.9 C 306.3,568.5 351.5,565.5 396.7,563.1 C 441.9,560.7 487.0,551.4 532.2,553.5 C 577.4,555.5 622.6,574.7 667.8,575.2 C 713.0,575.7 758.1,558.8 803.3,556.4 C 848.5,554.0 893.7,558.1 938.9,560.8 C 984.1,563.4 1029.3,574.3 1074.4,572.4 C 1119.6,570.5 1187.4,553.1 1210.0,549.2" stroke="#2D3748" stroke-width="0.75" fill="none" stroke-linecap="round"></path>
  <path d="M -10.0,597.2 C 12.6,598.0 80.4,601.7 125.6,602.0 C 170.7,602.3 215.9,596.2 261.1,598.9 C 306.3,601.5 351.5,617.0 396.7,618.1 C 441.9,619.2 487.0,609.4 532.2,605.5 C 577.4,601.6 622.6,592.1 667.8,594.9 C 713.0,597.7 758.1,616.0 803.3,622.1 C 848.5,628.3 893.7,633.9 938.9,631.9 C 984.1,630.0 1029.3,610.3 1074.4,610.2 C 1119.6,610.1 1187.4,628.0 1210.0,631.6" stroke="#2D3748" stroke-width="0.75" fill="none" stroke-linecap="round"></path>
  <path d="M -10.0,694.3 C 12.6,690.6 80.4,677.4 125.6,672.1 C 170.7,666.8 215.9,660.0 261.1,662.3 C 306.3,664.5 351.5,680.9 396.7,685.6 C 441.9,690.3 487.0,695.9 532.2,690.4 C 577.4,684.9 622.6,653.8 667.8,652.7 C 713.0,651.5 758.1,677.4 803.3,683.3 C 848.5,689.3 893.7,692.4 938.9,688.4 C 984.1,684.4 1029.3,660.1 1074.4,659.3 C 1119.6,658.4 1187.4,679.3 1210.0,683.4" stroke="#2D3748" stroke-width="0.75" fill="none" stroke-linecap="round"></path>
  <path d="M -10.0,741.4 C 12.6,738.7 80.4,727.6 125.6,725.0 C 170.7,722.3 215.9,723.3 261.1,725.6 C 306.3,727.8 351.5,738.8 396.7,738.4 C 441.9,738.0 487.0,721.4 532.2,723.3 C 577.4,725.1 622.6,745.8 667.8,749.7 C 713.0,753.7 758.1,746.7 803.3,746.8 C 848.5,746.9 893.7,752.2 938.9,750.5 C 984.1,748.7 1029.3,736.1 1074.4,736.5 C 1119.6,736.9 1187.4,750.2 1210.0,752.9" stroke="#2D3748" stroke-width="0.75" fill="none" stroke-linecap="round"></path>
</svg>