<svg xmlns="http://www.w3.org/2000/svg" viewBox="0 0 960 720" fill="none">
  <path d="M-59.31,-109.76 Q-55.43,-112 -51.55,-109.76 L-3.88,-82.24 Q0,-80 0,-75.52 L0,-20.48 Q0,-16 -3.88,-13.76 L-51.55,13.76 Q-55.43,16 -59.31,13.76 L-106.97,-13.76 Q-110.85,-16 -110.85,-20.48 L-110.85,-75.52 Q-110.85,-80 -106.97,-82.24 Z" fill="none" stroke="#FAF8F6" stroke-width="0.75"></path>
  <path d="M51.55,-109.76 Q55.43,-112 59.31,-109.76 L106.97,-82.24 Q110.85,-80 110.85,-75.52 L110.85,-20.48 Q110.85,-16 106.97,-13.76 L59.31,13.76 Q55.43,16 51.55,13.76 L3.88,-13.76 Q0,-16 0,-20.48 L0,-75.52 Q0,-80 3.88,-82.24 Z" fill="none" stroke="#FAF8F6" stroke-width="0.75"></path>
  <path d="M162.4,-109.76 Q166.28,-112 170.16,-109.76 L217.82,-82.24 Q221.7,-80 221.7,-75.52 L221.7,-20.48 Q221.7,-16 217.82,-13.76 L170.16,13.76 Q166.28,16 162.4,13.76 L114.73,-13.76 Q110.85,-16 110.85,-20.48 L110.85,-75.52 Q110.85,-80 114.73,-82.24 Z" fill="none" stroke="#FAF8F6" stroke-width="0.75"></path>
  <path d="M273.25,-109.76 Q277.13,-112 281.01,-109.76 L328.67,-82.24 Q332.55,-80 332.55,-75.52 L332.55,-20.48 Q332.55,-16 328.67,-13.76 L281.01,13.76 Q277.13,16 273.25,13.76 L225.58,-13.76 Q221.7,-16 221.7,-20.48 L221.7,-75.52 Q221.7,-80 225.58,-82.24 Z" fill="none" stroke="#FAF8F6" stroke-width="0.75"></path>
  <path d="M384.1,-109.76 Q387.98,-112 391.86,-109.76 L439.53,-82.24 Q443.41,-80 443.41,-75.52 L443.41,-20.48 Q443.41,-16 439.53,-13.76 L391.86,13.76 Q387.98,16 384.1,13.76 L336.43,-13.76 Q332.55,-16 332.55,-20.48 L332.55,-75.52 Q332.55,-80 336.43,-82.24 Z" fill="none" stroke="#FAF8F6" stroke-width="0.75"></path>
  <path d="M494.95,-109.76 Q498.83,-112 502.71,-109.76 L550.38,-82.24 Q554.26,-80 554.26,-75.52 L554.26,-20.48 Q554.26,-16 550.38,-13.76 L502.71,13.76 Q498.83,16 494.95,13.76 L447.28,-13.76 Q443.41,-16 443.41,-20.48 L443.41,-75.52 Q443.41,-80 447.28,-82.24 Z" fill="none" stroke="#FAF8F6" stroke-width="0.75"></path>
  <path d="M605.8,-109.76 Q609.68,-112 613.56,-109.76 L661.23,-82.24 Q665.11,-80 665.11,-75.52 L665.11,-20.48 Q665.11,-16 661.23,-13.76 L613.56,13.76 Q609.68,16 605.8,13.76 L558.14,-13.76 Q554.26,-16 554.26,-20.48 L554.26,-75.52 Q554.26,-80 558.14,-82.24 Z" fill="none" stroke="#FAF8F6" stroke-width="0.75"></path>
  <path d="M716.65,-109.76 Q720.53,-112 724.41,-109.76 L772.08,-82.24 Q775.96,-80 775.96,-75.52 L775.96,-20.48 Q775.96,-16 772.08,-13.76 L724.41,13.76 Q720.53,16 716.65,13.76 L668.99,-13.76 Q665.11,-16 665.11,-20.48 L665.11,-75.52 Q665.11,-80 668.99,-82.24 Z" fill="none" stroke="#FAF8F6" stroke-width="0.75"></path>
  <path d="M827.5,-109.76 Q831.38,-112 835.26,-109.76 L882.93,-82.24 Q886.81,-80 886.81,-75.52 L886.81,-20.48 Q886.81,-16 882.93,-13.76 L835.26,13.76 Q831.38,16 827.5,13.76 L779.84,-13.76 Q775.96,-16 775.96,-20.48 L775.96,-75.52 Q775.96,-80 779.84,-82.24 Z" fill="none" stroke="#FAF8F6" stroke-width="0.75"></path>
  <path d="M938.36,-109.76 Q942.24,-112 946.12,-109.76 L993.78,-82.24 Q997.66,-80 997.66,-75.52 L997.66,-20.48 Q997.66,-16 993.78,-13.76 L946.12,13.76 Q942.24,16 938.36,13.76 L890.69,-13.76 Q886.81,-16 886.81,-20.48 L886.81,-75.52 Q886.81,-80 890.69,-82.24 Z" fill="none" stroke="#FAF8F6" stroke-width="0.75"></path>
  <path d="M-3.88,-13.76 Q0,-16 3.88,-13.76 L51.55,13.76 Q55.43,16 55.43,20.48 L55.43,75.52 Q55.43,80 51.55,82.24 L3.88,109.76 Q0,112 -3.88,109.76 L-51.55,82.24 Q-55.43,80 -55.43,75.52 L-55.43,20.48 Q-55.43,16 -51.55,13.76 Z" fill="none" stroke="#FAF8F6" stroke-width="0.75"></path>
  <path d="M106.97,-13.76 Q110.85,-16 114.73,-13.76 L162.4,13.76 Q166.28,16 166.28,20.48 L166.28,75.52 Q166.28,80 162.4,82.24 L114.73,109.76 Q110.85,112 106.97,109.76 L59.31,82.24 Q55.43,80 55.43,75.52 L55.43,20.48 Q55.43,16 59.31,13.76 Z" fill="none" stroke="#FAF8F6" stroke-width="0.75"></path>
  <path d="M217.82,-13.76 Q221.7,-16 225.58,-13.76 L273.25,13.76 Q277.13,16 277.13,20.48 L277.13,75.52 Q277.13,80 273.25,82.24 L225.58,109.76 Q221.7,112 217.82,109.76 L170.16,82.24 Q166.28,80 166.28,75.52 L166.28,20.48 Q166.28,16 170.16,13.76 Z" fill="none" stroke="#FAF8F6" stroke-width="0.75"></path>
  <path d="M328.67,-13.76 Q332.55,-16 336.43,-13.76 L384.1,13.76 Q387.98,16 387.98,20.48 L387.98,75.52 Q387.98,80 384.1,82.24 L336.43,109.76 Q332.55,112 328.67,109.76 L281.01,82.24 Q277.13,80 277.13,75.52 L277.13,20.48 Q277.13,16 281.01,13.76 Z" fill="none" stroke="#FAF8F6" stroke-width="0.75"></path>
  <path d="M439.53,-13.76 Q443.41,-16 447.28,-13.76 L494.95,13.76 Q498.83,16 498.83,20.48 L498.83,75.52 Q498.83,80 494.95,82.24 L447.28,109.76 Q443.41,112 439.53,109.76 L391.86,82.24 Q387.98,80 387.98,75.52 L387.98,20.48 Q387.98,16 391.86,13.76 Z" fill="none" stroke="#FAF8F6" stroke-width="0.75"></path>
  <path d="M550.38,-13.76 Q554.26,-16 558.14,-13.76 L605.8,13.76 Q609.68,16 609.68,20.48 L609.68,75.52 Q609.68,80 605.8,82.24 L558.14,109.76 Q554.26,112 550.38,109.76 L502.71,82.24 Q498.83,80 498.83,75.52 L498.83,20.48 Q498.83,16 502.71,13.76 Z" fill="none" stroke="#FAF8F6" stroke-width="0.75"></path>
  <path d="M661.23,-13.76 Q665.11,-16 668.99,-13.76 L716.65,13.76 Q720.53,16 720.53,20.48 L720.53,75.52 Q720.53,80 716.65,82.24 L668.99,109.76 Q665.11,112 661.23,109.76 L613.56,82.24 Q609.68,80 609.68,75.52 L609.68,20.48 Q609.68,16 613.56,13.76 Z" fill="none" stroke="#FAF8F6" stroke-width="0.75"></path>
  <path d="M772.08,-13.76 Q775.96,-16 779.84,-13.76 L827.5,13.76 Q831.38,16 831.38,20.48 L831.38,75.52 Q831.38,80 827.5,82.24 L779.84,109.76 Q775.96,112 772.08,109.76 L724.41,82.24 Q720.53,80 720.53,75.52 L720.53,20.48 Q720.53,16 724.41,13.76 Z" fill="none" stroke="#FAF8F6" stroke-width="0.75"></path>
  <path d="M882.93,-13.76 Q886.81,-16 890.69,-13.76 L938.36,13.76 Q942.24,16 942.24,20.48 L942.24,75.52 Q942.24,80 938.36,82.24 L890.69,109.76 Q886.81,112 882.93,109.76 L835.26,82.24 Q831.38,80 831.38,75.52 L831.38,20.48 Q831.38,16 835.26,13.76 Z" fill="none" stroke="#FAF8F6" stroke-width="0.75"></path>
  <path d="M993.78,-13.76 Q997.66,-16 1001.54,-13.76 L1049.21,13.76 Q1053.09,16 1053.09,20.48 L1053.09,75.52 Q1053.09,80 1049.21,82.24 L1001.54,109.76 Q997.66,112 993.78,109.76 L946.12,82.24 Q942.24,80 942.24,75.52 L942.24,20.48 Q942.24,16 946.12,13.76 Z" fill="none" stroke="#FAF8F6" stroke-width="0.75"></path>
  <path d="M-59.31,82.24 Q-55.43,80 -51.55,82.24 L-3.88,109.76 Q0,112 0,116.48 L0,171.52 Q0,176 -3.88,178.24 L-51.55,205.76 Q-55.43,208 -59.31,205.76 L-106.97,178.24 Q-110.85,176 -110.85,171.52 L-110.85,116.48 Q-110.85,112 -106.97,109.76 Z" fill="none" stroke="#FAF8F6" stroke-width="0.75"></path>
  <path d="M51.55,82.24 Q55.43,80 59.31,82.24 L106.97,109.76 Q110.85,112 110.85,116.48 L110.85,171.52 Q110.85,176 106.97,178.24 L59.31,205.76 Q55.43,208 51.55,205.76 L3.88,178.24 Q0,176 0,171.52 L0,116.48 Q0,112 3.88,109.76 Z" fill="none" stroke="#FAF8F6" stroke-width="0.75"></path>
  <path d="M162.4,82.24 Q166.28,80 170.16,82.24 L217.82,109.76 Q221.7,112 221.7,116.48 L221.7,171.52 Q221.7,176 217.82,178.24 L170.16,205.76 Q166.28,208 162.4,205.76 L114.73,178.24 Q110.85,176 110.85,171.52 L110.85,116.48 Q110.85,112 114.73,109.76 Z" fill="none" stroke="#FAF8F6" stroke-width="0.75"></path>
  <path d="M273.25,82.24 Q277.13,80 281.01,82.24 L328.67,109.76 Q332.55,112 332.55,116.48 L332.55,171.52 Q332.55,176 328.67,178.24 L281.01,205.76 Q277.13,208 273.25,205.76 L225.58,178.24 Q221.7,176 221.7,171.52 L221.7,116.48 Q221.7,112 225.58,109.76 Z" fill="none" stroke="#FAF8F6" stroke-width="0.75"></path>
  <path d="M384.1,82.24 Q387.98,80 391.86,82.24 L439.53,109.76 Q443.41,112 443.41,116.48 L443.41,171.52 Q443.41,176 439.53,178.24 L391.86,205.76 Q387.98,208 384.1,205.76 L336.43,178.24 Q332.55,176 332.55,171.52 L332.55,116.48 Q332.55,112 336.43,109.76 Z" fill="none" stroke="#FAF8F6" stroke-width="0.75"></path>
  <path d="M494.95,82.24 Q498.83,80 502.71,82.24 L550.38,109.76 Q554.26,112 554.26,116.48 L554.26,171.52 Q554.26,176 550.38,178.24 L502.71,205.76 Q498.83,208 494.95,205.76 L447.28,178.24 Q443.41,176 443.41,171.52 L443.41,116.48 Q443.41,112 447.28,109.76 Z" fill="none" stroke="#FAF8F6" stroke-width="0.75"></path>
  <path d="M605.8,82.24 Q609.68,80 613.56,82.24 L661.23,109.76 Q665.11,112 665.11,116.48 L665.11,171.52 Q665.11,176 661.23,178.24 L613.56,205.76 Q609.68,208 605.8,205.76 L558.14,178.24 Q554.26,176 554.26,171.52 L554.26,116.48 Q554.26,112 558.14,109.76 Z" fill="none" stroke="#FAF8F6" stroke-width="0.75"></path>
  <path d="M716.65,82.24 Q720.53,80 724.41,82.24 L772.08,109.76 Q775.96,112 775.96,116.48 L775.96,171.52 Q775.96,176 772.08,178.24 L724.41,205.76 Q720.53,208 716.65,205.76 L668.99,178.24 Q665.11,176 665.11,171.52 L665.11,116.48 Q665.11,112 668.99,109.76 Z" fill="none" stroke="#FAF8F6" stroke-width="0.75"></path>
  <path d="M827.5,82.24 Q831.38,80 835.26,82.24 L882.93,109.76 Q886.81,112 886.81,116.48 L886.81,171.52 Q886.81,176 882.93,178.24 L835.26,205.76 Q831.38,208 827.5,205.76 L779.84,178.24 Q775.96,176 775.96,171.52 L775.96,116.48 Q775.96,112 779.84,109.76 Z" fill="none" stroke="#FAF8F6" stroke-width="0.75"></path>
  <path d="M938.36,82.24 Q942.24,80 946.12,82.24 L993.78,109.76 Q997.66,112 997.66,116.48 L997.66,171.52 Q997.66,176 993.78,178.24 L946.12,205.76 Q942.24,208 938.36,205.76 L890.69,178.24 Q886.81,176 886.81,171.52 L886.81,116.48 Q886.81,112 890.69,109.76 Z" fill="none" stroke="#FAF8F6" stroke-width="0.75"></path>
  <path d="M-3.88,178.24 Q0,176 3.88,178.24 L51.55,205.76 Q55.43,208 55.43,212.48 L55.43,267.52 Q55.43,272 51.55,274.24 L3.88,301.76 Q0,304 -3.88,301.76 L-51.55,274.24 Q-55.43,272 -55.43,267.52 L-55.43,212.48 Q-55.43,208 -51.55,205.76 Z" fill="none" stroke="#FAF8F6" stroke-width="0.75"></path>
  <path d="M106.97,178.24 Q110.85,176 114.73,178.24 L162.4,205.76 Q166.28,208 166.28,212.48 L166.28,267.52 Q166.28,272 162.4,274.24 L114.73,301.76 Q110.85,304 106.97,301.76 L59.31,274.24 Q55.43,272 55.43,267.52 L55.43,212.48 Q55.43,208 59.31,205.76 Z" fill="none" stroke="#FAF8F6" stroke-width="0.75"></path>
  <path d="M217.82,178.24 Q221.7,176 225.58,178.24 L273.25,205.76 Q277.13,208 277.13,212.48 L277.13,267.52 Q277.13,272 273.25,274.24 L225.58,301.76 Q221.7,304 217.82,301.76 L170.16,274.24 Q166.28,272 166.28,267.52 L166.28,212.48 Q166.28,208 170.16,205.76 Z" fill="none" stroke="#FAF8F6" stroke-width="0.75"></path>
  <path d="M328.67,178.24 Q332.55,176 336.43,178.24 L384.1,205.76 Q387.98,208 387.98,212.48 L387.98,267.52 Q387.98,272 384.1,274.24 L336.43,301.76 Q332.55,304 328.67,301.76 L281.01,274.24 Q277.13,272 277.13,267.52 L277.13,212.48 Q277.13,208 281.01,205.76 Z" fill="none" stroke="#FAF8F6" stroke-width="0.75"></path>
  <path d="M439.53,178.24 Q443.41,176 447.28,178.24 L494.95,205.76 Q498.83,208 498.83,212.48 L498.83,267.52 Q498.83,272 494.95,274.24 L447.28,301.76 Q443.41,304 439.53,301.76 L391.86,274.24 Q387.98,272 387.98,267.52 L387.98,212.48 Q387.98,208 391.86,205.76 Z" fill="none" stroke="#FAF8F6" stroke-width="0.75"></path>
  <path d="M550.38,178.24 Q554.26,176 558.14,178.24 L605.8,205.76 Q609.68,208 609.68,212.48 L609.68,267.52 Q609.68,272 605.8,274.24 L558.14,301.76 Q554.26,304 550.38,301.76 L502.71,274.24 Q498.83,272 498.83,267.52 L498.83,212.48 Q498.83,208 502.71,205.76 Z" fill="none" stroke="#FAF8F6" stroke-width="0.75"></path>
  <path d="M661.23,178.24 Q665.11,176 668.99,178.24 L716.65,205.76 Q720.53,208 720.53,212.48 L720.53,267.52 Q720.53,272 716.65,274.24 L668.99,301.76 Q665.11,304 661.23,301.76 L613.56,274.24 Q609.68,272 609.68,267.52 L609.68,212.48 Q609.68,208 613.56,205.76 Z" fill="none" stroke="#FAF8F6" stroke-width="0.75"></path>
  <path d="M772.08,178.24 Q775.96,176 779.84,178.24 L827.5,205.76 Q831.38,208 831.38,212.48 L831.38,267.52 Q831.38,272 827.5,274.24 L779.84,301.76 Q775.96,304 772.08,301.76 L724.41,274.24 Q720.53,272 720.53,267.52 L720.53,212.48 Q720.53,208 724.41,205.76 Z" fill="none" stroke="#FAF8F6" stroke-width="0.75"></path>
  <path d="M882.93,178.24 Q886.81,176 890.69,178.24 L938.36,205.76 Q942.24,208 942.24,212.48 L942.24,267.52 Q942.24,272 938.36,274.24 L890.69,301.76 Q886.81,304 882.93,301.76 L835.26,274.24 Q831.38,272 831.38,267.52 L831.38,212.48 Q831.38,208 835.26,205.76 Z" fill="none" stroke="#FAF8F6" stroke-width="0.75"></path>
  <path d="M993.78,178.24 Q997.66,176 1001.54,178.24 L1049.21,205.76 Q1053.09,208 1053.09,212.48 L1053.09,267.52 Q1053.09,272 1049.21,274.24 L1001.54,301.76 Q997.66,304 993.78,301.76 L946.12,274.24 Q942.24,272 942.24,267.52 L942.24,212.48 Q942.24,208 946.12,205.76 Z" fill="none" stroke="#FAF8F6" stroke-width="0.75"></path>
  <path d="M-59.31,274.24 Q-55.43,272 -51.55,274.24 L-3.88,301.76 Q0,304 0,308.48 L0,363.52 Q0,368 -3.88,370.24 L-51.55,397.76 Q-55.43,400 -59.31,397.76 L-106.97,370.24 Q-110.85,368 -110.85,363.52 L-110.85,308.48 Q-110.85,304 -106.97,301.76 Z" fill="none" stroke="#FAF8F6" stroke-width="0.75"></path>
  <path d="M51.55,274.24 Q55.43,272 59.31,274.24 L106.97,301.76 Q110.85,304 110.85,308.48 L110.85,363.52 Q110.85,368 106.97,370.24 L59.31,397.76 Q55.43,400 51.55,397.76 L3.88,370.24 Q0,368 0,363.52 L0,308.48 Q0,304 3.88,301.76 Z" fill="none" stroke="#FAF8F6" stroke-width="0.75"></path>
  <path d="M162.4,274.24 Q166.28,272 170.16,274.24 L217.82,301.76 Q221.7,304 221.7,308.48 L221.7,363.52 Q221.7,368 217.82,370.24 L170.16,397.76 Q166.28,400 162.4,397.76 L114.73,370.24 Q110.85,368 110.85,363.52 L110.85,308.48 Q110.85,304 114.73,301.76 Z" fill="none" stroke="#FAF8F6" stroke-width="0.75"></path>
  <path d="M273.25,274.24 Q277.13,272 281.01,274.24 L328.67,301.76 Q332.55,304 332.55,308.48 L332.55,363.52 Q332.55,368 328.67,370.24 L281.01,397.76 Q277.13,400 273.25,397.76 L225.58,370.24 Q221.7,368 221.7,363.52 L221.7,308.48 Q221.7,304 225.58,301.76 Z" fill="none" stroke="#FAF8F6" stroke-width="0.75"></path>
  <path d="M384.1,274.24 Q387.98,272 391.86,274.24 L439.53,301.76 Q443.41,304 443.41,308.48 L443.41,363.52 Q443.41,368 439.53,370.24 L391.86,397.76 Q387.98,400 384.1,397.76 L336.43,370.24 Q332.55,368 332.55,363.52 L332.55,308.48 Q332.55,304 336.43,301.76 Z" fill="none" stroke="#FAF8F6" stroke-width="0.75"></path>
  <path d="M494.95,274.24 Q498.83,272 502.71,274.24 L550.38,301.76 Q554.26,304 554.26,308.48 L554.26,363.52 Q554.26,368 550.38,370.24 L502.71,397.76 Q498.83,400 494.95,397.76 L447.28,370.24 Q443.41,368 443.41,363.52 L443.41,308.48 Q443.41,304 447.28,301.76 Z" fill="none" stroke="#FAF8F6" stroke-width="0.75"></path>
  <path d="M605.8,274.24 Q609.68,272 613.56,274.24 L661.23,301.76 Q665.11,304 665.11,308.48 L665.11,363.52 Q665.11,368 661.23,370.24 L613.56,397.76 Q609.68,400 605.8,397.76 L558.14,370.24 Q554.26,368 554.26,363.52 L554.26,308.48 Q554.26,304 558.14,301.76 Z" fill="none" stroke="#FAF8F6" stroke-width="0.75"></path>
  <path d="M716.65,274.24 Q720.53,272 724.41,274.24 L772.08,301.76 Q775.96,304 775.96,308.48 L775.96,363.52 Q775.96,368 772.08,370.24 L724.41,397.76 Q720.53,400 716.65,397.76 L668.99,370.24 Q665.11,368 665.11,363.52 L665.11,308.48 Q665.11,304 668.99,301.76 Z" fill="none" stroke="#FAF8F6" stroke-width="0.75"></path>
  <path d="M827.5,274.24 Q831.38,272 835.26,274.24 L882.93,301.76 Q886.81,304 886.81,308.48 L886.81,363.52 Q886.81,368 882.93,370.24 L835.26,397.76 Q831.38,400 827.5,397.76 L779.84,370.24 Q775.96,368 775.96,363.52 L775.96,308.48 Q775.96,304 779.84,301.76 Z" fill="none" stroke="#FAF8F6" stroke-width="0.75"></path>
  <path d="M938.36,274.24 Q942.24,272 946.12,274.24 L993.78,301.76 Q997.66,304 997.66,308.48 L997.66,363.52 Q997.66,368 993.78,370.24 L946.12,397.76 Q942.24,400 938.36,397.76 L890.69,370.24 Q886.81,368 886.81,363.52 L886.81,308.48 Q886.81,304 890.69,301.76 Z" fill="none" stroke="#FAF8F6" stroke-width="0.75"></path>
  <path d="M-3.88,370.24 Q0,368 3.88,370.24 L51.55,397.76 Q55.43,400 55.43,404.48 L55.43,459.52 Q55.43,464 51.55,466.24 L3.88,493.76 Q0,496 -3.88,493.76 L-51.55,466.24 Q-55.43,464 -55.43,459.52 L-55.43,404.48 Q-55.43,400 -51.55,397.76 Z" fill="none" stroke="#FAF8F6" stroke-width="0.75"></path>
  <path d="M106.97,370.24 Q110.85,368 114.73,370.24 L162.4,397.76 Q166.28,400 166.28,404.48 L166.28,459.52 Q166.28,464 162.4,466.24 L114.73,493.76 Q110.85,496 106.97,493.76 L59.31,466.24 Q55.43,464 55.43,459.52 L55.43,404.48 Q55.43,400 59.31,397.76 Z" fill="none" stroke="#FAF8F6" stroke-width="0.75"></path>
  <path d="M217.82,370.24 Q221.7,368 225.58,370.24 L273.25,397.76 Q277.13,400 277.13,404.48 L277.13,459.52 Q277.13,464 273.25,466.24 L225.58,493.76 Q221.7,496 217.82,493.76 L170.16,466.24 Q166.28,464 166.28,459.52 L166.28,404.48 Q166.28,400 170.16,397.76 Z" fill="none" stroke="#FAF8F6" stroke-width="0.75"></path>
  <path d="M328.67,370.24 Q332.55,368 336.43,370.24 L384.1,397.76 Q387.98,400 387.98,404.48 L387.98,459.52 Q387.98,464 384.1,466.24 L336.43,493.76 Q332.55,496 328.67,493.76 L281.01,466.24 Q277.13,464 277.13,459.52 L277.13,404.48 Q277.13,400 281.01,397.76 Z" fill="none" stroke="#FAF8F6" stroke-width="0.75"></path>
  <path d="M439.53,370.24 Q443.41,368 447.28,370.24 L494.95,397.76 Q498.83,400 498.83,404.48 L498.83,459.52 Q498.83,464 494.95,466.24 L447.28,493.76 Q443.41,496 439.53,493.76 L391.86,466.24 Q387.98,464 387.98,459.52 L387.98,404.48 Q387.98,400 391.86,397.76 Z" fill="none" stroke="#FAF8F6" stroke-width="0.75"></path>
  <path d="M550.38,370.24 Q554.26,368 558.14,370.24 L605.8,397.76 Q609.68,400 609.68,404.48 L609.68,459.52 Q609.68,464 605.8,466.24 L558.14,493.76 Q554.26,496 550.38,493.76 L502.71,466.24 Q498.83,464 498.83,459.52 L498.83,404.48 Q498.83,400 502.71,397.76 Z" fill="none" stroke="#FAF8F6" stroke-width="0.75"></path>
  <path d="M661.23,370.24 Q665.11,368 668.99,370.24 L716.65,397.76 Q720.53,400 720.53,404.48 L720.53,459.52 Q720.53,464 716.65,466.24 L668.99,493.76 Q665.11,496 661.23,493.76 L613.56,466.24 Q609.68,464 609.68,459.52 L609.68,404.48 Q609.68,400 613.56,397.76 Z" fill="none" stroke="#FAF8F6" stroke-width="0.75"></path>
  <path d="M772.08,370.24 Q775.96,368 779.84,370.24 L827.5,397.76 Q831.38,400 831.38,404.48 L831.38,459.52 Q831.38,464 827.5,466.24 L779.84,493.76 Q775.96,496 772.08,493.76 L724.41,466.24 Q720.53,464 720.53,459.52 L720.53,404.48 Q720.53,400 724.41,397.76 Z" fill="none" stroke="#FAF8F6" stroke-width="0.75"></path>
  <path d="M882.93,370.24 Q886.81,368 890.69,370.24 L938.36,397.76 Q942.24,400 942.24,404.48 L942.24,459.52 Q942.24,464 938.36,466.24 L890.69,493.76 Q886.81,496 882.93,493.76 L835.26,466.24 Q831.38,464 831.38,459.52 L831.38,404.48 Q831.38,400 835.26,397.76 Z" fill="none" stroke="#FAF8F6" stroke-width="0.75"></path>
  <path d="M993.78,370.24 Q997.66,368 1001.54,370.24 L1049.21,397.76 Q1053.09,400 1053.09,404.48 L1053.09,459.52 Q1053.09,464 1049.21,466.24 L1001.54,493.76 Q997.66,496 993.78,493.76 L946.12,466.24 Q942.24,464 942.24,459.52 L942.24,404.48 Q942.24,400 946.12,397.76 Z" fill="none" stroke="#FAF8F6" stroke-width="0.75"></path>
  <path d="M-59.31,466.24 Q-55.43,464 -51.55,466.24 L-3.88,493.76 Q0,496 0,500.48 L0,555.52 Q0,560 -3.88,562.24 L-51.55,589.76 Q-55.43,592 -59.31,589.76 L-106.97,562.24 Q-110.85,560 -110.85,555.52 L-110.85,500.48 Q-110.85,496 -106.97,493.76 Z" fill="none" stroke="#FAF8F6" stroke-width="0.75"></path>
  <path d="M51.55,466.24 Q55.43,464 59.31,466.24 L106.97,493.76 Q110.85,496 110.85,500.48 L110.85,555.52 Q110.85,560 106.97,562.24 L59.31,589.76 Q55.43,592 51.55,589.76 L3.88,562.24 Q0,560 0,555.52 L0,500.48 Q0,496 3.88,493.76 Z" fill="none" stroke="#FAF8F6" stroke-width="0.75"></path>
  <path d="M162.4,466.24 Q166.28,464 170.16,466.24 L217.82,493.76 Q221.7,496 221.7,500.48 L221.7,555.52 Q221.7,560 217.82,562.24 L170.16,589.76 Q166.28,592 162.4,589.76 L114.73,562.24 Q110.85,560 110.85,555.52 L110.85,500.48 Q110.85,496 114.73,493.76 Z" fill="none" stroke="#FAF8F6" stroke-width="0.75"></path>
  <path d="M273.25,466.24 Q277.13,464 281.01,466.24 L328.67,493.76 Q332.55,496 332.55,500.48 L332.55,555.52 Q332.55,560 328.67,562.24 L281.01,589.76 Q277.13,592 273.25,589.76 L225.58,562.24 Q221.7,560 221.7,555.52 L221.7,500.48 Q221.7,496 225.58,493.76 Z" fill="none" stroke="#FAF8F6" stroke-width="0.75"></path>
  <path d="M384.1,466.24 Q387.98,464 391.86,466.24 L439.53,493.76 Q443.41,496 443.41,500.48 L443.41,555.52 Q443.41,560 439.53,562.24 L391.86,589.76 Q387.98,592 384.1,589.76 L336.43,562.24 Q332.55,560 332.55,555.52 L332.55,500.48 Q332.55,496 336.43,493.76 Z" fill="none" stroke="#FAF8F6" stroke-width="0.75"></path>
  <path d="M494.95,466.24 Q498.83,464 502.71,466.24 L550.38,493.76 Q554.26,496 554.26,500.48 L554.26,555.52 Q554.26,560 550.38,562.24 L502.71,589.76 Q498.83,592 494.95,589.76 L447.28,562.24 Q443.41,560 443.41,555.52 L443.41,500.48 Q443.41,496 447.28,493.76 Z" fill="none" stroke="#FAF8F6" stroke-width="0.75"></path>
  <path d="M605.8,466.24 Q609.68,464 613.56,466.24 L661.23,493.76 Q665.11,496 665.11,500.48 L665.11,555.52 Q665.11,560 661.23,562.24 L613.56,589.76 Q609.68,592 605.8,589.76 L558.14,562.24 Q554.26,560 554.26,555.52 L554.26,500.48 Q554.26,496 558.14,493.76 Z" fill="none" stroke="#FAF8F6" stroke-width="0.75"></path>
  <path d="M716.65,466.24 Q720.53,464 724.41,466.24 L772.08,493.76 Q775.96,496 775.96,500.48 L775.96,555.52 Q775.96,560 772.08,562.24 L724.41,589.76 Q720.53,592 716.65,589.76 L668.99,562.24 Q665.11,560 665.11,555.52 L665.11,500.48 Q665.11,496 668.99,493.76 Z" fill="none" stroke="#FAF8F6" stroke-width="0.75"></path>
  <path d="M827.5,466.24 Q831.38,464 835.26,466.24 L882.93,493.76 Q886.81,496 886.81,500.48 L886.81,555.52 Q886.81,560 882.93,562.24 L835.26,589.76 Q831.38,592 827.5,589.76 L779.84,562.24 Q775.96,560 775.96,555.52 L775.96,500.48 Q775.96,496 779.84,493.76 Z" fill="none" stroke="#FAF8F6" stroke-width="0.75"></path>
  <path d="M938.36,466.24 Q942.24,464 946.12,466.24 L993.78,493.76 Q997.66,496 997.66,500.48 L997.66,555.52 Q997.66,560 993.78,562.24 L946.12,589.76 Q942.24,592 938.36,589.76 L890.69,562.24 Q886.81,560 886.81,555.52 L886.81,500.48 Q886.81,496 890.69,493.76 Z" fill="none" stroke="#FAF8F6" stroke-width="0.75"></path>
  <path d="M-3.88,562.24 Q0,560 3.88,562.24 L51.55,589.76 Q55.43,592 55.43,596.48 L55.43,651.52 Q55.43,656 51.55,658.24 L3.88,685.76 Q0,688 -3.88,685.76 L-51.55,658.24 Q-55.43,656 -55.43,651.52 L-55.43,596.48 Q-55.43,592 -51.55,589.76 Z" fill="none" stroke="#FAF8F6" stroke-width="0.75"></path>
  <path d="M106.97,562.24 Q110.85,560 114.73,562.24 L162.4,589.76 Q166.28,592 166.28,596.48 L166.28,651.52 Q166.28,656 162.4,658.24 L114.73,685.76 Q110.85,688 106.97,685.76 L59.31,658.24 Q55.43,656 55.43,651.52 L55.43,596.48 Q55.43,592 59.31,589.76 Z" fill="none" stroke="#FAF8F6" stroke-width="0.75"></path>
  <path d="M217.82,562.24 Q221.7,560 225.58,562.24 L273.25,589.76 Q277.13,592 277.13,596.48 L277.13,651.52 Q277.13,656 273.25,658.24 L225.58,685.76 Q221.7,688 217.82,685.76 L170.16,658.24 Q166.28,656 166.28,651.52 L166.28,596.48 Q166.28,592 170.16,589.76 Z" fill="none" stroke="#FAF8F6" stroke-width="0.75"></path>
  <path d="M328.67,562.24 Q332.55,560 336.43,562.24 L384.1,589.76 Q387.98,592 387.98,596.48 L387.98,651.52 Q387.98,656 384.1,658.24 L336.43,685.76 Q332.55,688 328.67,685.76 L281.01,658.24 Q277.13,656 277.13,651.52 L277.13,596.48 Q277.13,592 281.01,589.76 Z" fill="none" stroke="#FAF8F6" stroke-width="0.75"></path>
  <path d="M439.53,562.24 Q443.41,560 447.28,562.24 L494.95,589.76 Q498.83,592 498.83,596.48 L498.83,651.52 Q498.83,656 494.95,658.24 L447.28,685.76 Q443.41,688 439.53,685.76 L391.86,658.24 Q387.98,656 387.98,651.52 L387.98,596.48 Q387.98,592 391.86,589.76 Z" fill="none" stroke="#FAF8F6" stroke-width="0.75"></path>
  <path d="M550.38,562.24 Q554.26,560 558.14,562.24 L605.8,589.76 Q609.68,592 609.68,596.48 L609.68,651.52 Q609.68,656 605.8,658.24 L558.14,685.76 Q554.26,688 550.38,685.76 L502.71,658.24 Q498.83,656 498.83,651.52 L498.83,596.48 Q498.83,592 502.71,589.76 Z" fill="none" stroke="#FAF8F6" stroke-width="0.75"></path>
  <path d="M661.23,562.24 Q665.11,560 668.99,562.24 L716.65,589.76 Q720.53,592 720.53,596.48 L720.53,651.52 Q720.53,656 716.65,658.24 L668.99,685.76 Q665.11,688 661.23,685.76 L613.56,658.24 Q609.68,656 609.68,651.52 L609.68,596.48 Q609.68,592 613.56,589.76 Z" fill="none" stroke="#FAF8F6" stroke-width="0.75"></path>
  <path d="M772.08,562.24 Q775.96,560 779.84,562.24 L827.5,589.76 Q831.38,592 831.38,596.48 L831.38,651.52 Q831.38,656 827.5,658.24 L779.84,685.76 Q775.96,688 772.08,685.76 L724.41,658.24 Q720.53,656 720.53,651.52 L720.53,596.48 Q720.53,592 724.41,589.76 Z" fill="none" stroke="#FAF8F6" stroke-width="0.75"></path>
  <path d="M882.93,562.24 Q886.81,560 890.69,562.24 L938.36,589.76 Q942.24,592 942.24,596.48 L942.24,651.52 Q942.24,656 938.36,658.24 L890.69,685.76 Q886.81,688 882.93,685.76 L835.26,658.24 Q831.38,656 831.38,651.52 L831.38,596.48 Q831.38,592 835.26,589.76 Z" fill="none" stroke="#FAF8F6" stroke-width="0.75"></path>
  <path d="M993.78,562.24 Q997.66,560 1001.54,562.24 L1049.21,589.76 Q1053.09,592 1053.09,596.48 L1053.09,651.52 Q1053.09,656 1049.21,658.24 L1001.54,685.76 Q997.66,688 993.78,685.76 L946.12,658.24 Q942.24,656 942.24,651.52 L942.24,596.48 Q942.24,592 946.12,589.76 Z" fill="none" stroke="#FAF8F6" stroke-width="0.75"></path>
  <path d="M-59.31,658.24 Q-55.43,656 -51.55,658.24 L-3.88,685.76 Q0,688 0,692.48 L0,747.52 Q0,752 -3.88,754.24 L-51.55,781.76 Q-55.43,784 -59.31,781.76 L-106.97,754.24 Q-110.85,752 -110.85,747.52 L-110.85,692.48 Q-110.85,688 -106.97,685.76 Z" fill="none" stroke="#FAF8F6" stroke-width="0.75"></path>
  <path d="M51.55,658.24 Q55.43,656 59.31,658.24 L106.97,685.76 Q110.85,688 110.85,692.48 L110.85,747.52 Q110.85,752 106.97,754.24 L59.31,781.76 Q55.43,784 51.55,781.76 L3.88,754.24 Q0,752 0,747.52 L0,692.48 Q0,688 3.88,685.76 Z" fill="none" stroke="#FAF8F6" stroke-width="0.75"></path>
  <path d="M162.4,658.24 Q166.28,656 170.16,658.24 L217.82,685.76 Q221.7,688 221.7,692.48 L221.7,747.52 Q221.7,752 217.82,754.24 L170.16,781.76 Q166.28,784 162.4,781.76 L114.73,754.24 Q110.85,752 110.85,747.52 L110.85,692.48 Q110.85,688 114.73,685.76 Z" fill="none" stroke="#FAF8F6" stroke-width="0.75"></path>
  <path d="M273.25,658.24 Q277.13,656 281.01,658.24 L328.67,685.76 Q332.55,688 332.55,692.48 L332.55,747.52 Q332.55,752 328.67,754.24 L281.01,781.76 Q277.13,784 273.25,781.76 L225.58,754.24 Q221.7,752 221.7,747.52 L221.7,692.48 Q221.7,688 225.58,685.76 Z" fill="none" stroke="#FAF8F6" stroke-width="0.75"></path>
  <path d="M384.1,658.24 Q387.98,656 391.86,658.24 L439.53,685.76 Q443.41,688 443.41,692.48 L443.41,747.52 Q443.41,752 439.53,754.24 L391.86,781.76 Q387.98,784 384.1,781.76 L336.43,754.24 Q332.55,752 332.55,747.52 L332.55,692.48 Q332.55,688 336.43,685.76 Z" fill="none" stroke="#FAF8F6" stroke-width="0.75"></path>
  <path d="M494.95,658.24 Q498.83,656 502.71,658.24 L550.38,685.76 Q554.26,688 554.26,692.48 L554.26,747.52 Q554.26,752 550.38,754.24 L502.71,781.76 Q498.83,784 494.95,781.76 L447.28,754.24 Q443.41,752 443.41,747.52 L443.41,692.48 Q443.41,688 447.28,685.76 Z" fill="none" stroke="#FAF8F6" stroke-width="0.75"></path>
  <path d="M605.8,658.24 Q609.68,656 613.56,658.24 L661.23,685.76 Q665.11,688 665.11,692.48 L665.11,747.52 Q665.11,752 661.23,754.24 L613.56,781.76 Q609.68,784 605.8,781.76 L558.14,754.24 Q554.26,752 554.26,747.52 L554.26,692.48 Q554.26,688 558.14,685.76 Z" fill="none" stroke="#FAF8F6" stroke-width="0.75"></path>
  <path d="M716.65,658.24 Q720.53,656 724.41,658.24 L772.08,685.76 Q775.96,688 775.96,692.48 L775.96,747.52 Q775.96,752 772.08,754.24 L724.41,781.76 Q720.53,784 716.65,781.76 L668.99,754.24 Q665.11,752 665.11,747.52 L665.11,692.48 Q665.11,688 668.99,685.76 Z" fill="none" stroke="#FAF8F6" stroke-width="0.75"></path>
  <path d="M827.5,658.24 Q831.38,656 835.26,658.24 L882.93,685.76 Q886.81,688 886.81,692.48 L886.81,747.52 Q886.81,752 882.93,754.24 L835.26,781.76 Q831.38,784 827.5,781.76 L779.84,754.24 Q775.96,752 775.96,747.52 L775.96,692.48 Q775.96,688 779.84,685.76 Z" fill="none" stroke="#FAF8F6" stroke-width="0.75"></path>
  <path d="M938.36,658.24 Q942.24,656 946.12,658.24 L993.78,685.76 Q997.66,688 997.66,692.48 L997.66,747.52 Q997.66,752 993.78,754.24 L946.12,781.76 Q942.24,784 938.36,781.76 L890.69,754.24 Q886.81,752 886.81,747.52 L886.81,692.48 Q886.81,688 890.69,685.76 Z" fill="none" stroke="#FAF8F6" stroke-width="0.75"></path>
  <path d="M-3.88,754.24 Q0,752 3.88,754.24 L51.55,781.76 Q55.43,784 55.43,788.48 L55.43,843.52 Q55.43,848 51.55,850.24 L3.88,877.76 Q0,880 -3.88,877.76 L-51.55,850.24 Q-55.43,848 -55.43,843.52 L-55.43,788.48 Q-55.43,784 -51.55,781.76 Z" fill="none" stroke="#FAF8F6" stroke-width="0.75"></path>
  <path d="M106.97,754.24 Q110.85,752 114.73,754.24 L162.4,781.76 Q166.28,784 166.28,788.48 L166.28,843.52 Q166.28,848 162.4,850.24 L114.73,877.76 Q110.85,880 106.97,877.76 L59.31,850.24 Q55.43,848 55.43,843.52 L55.43,788.48 Q55.43,784 59.31,781.76 Z" fill="none" stroke="#FAF8F6" stroke-width="0.75"></path>
  <path d="M217.82,754.24 Q221.7,752 225.58,754.24 L273.25,781.76 Q277.13,784 277.13,788.48 L277.13,843.52 Q277.13,848 273.25,850.24 L225.58,877.76 Q221.7,880 217.82,877.76 L170.16,850.24 Q166.28,848 166.28,843.52 L166.28,788.48 Q166.28,784 170.16,781.76 Z" fill="none" stroke="#FAF8F6" stroke-width="0.75"></path>
  <path d="M328.67,754.24 Q332.55,752 336.43,754.24 L384.1,781.76 Q387.98,784 387.98,788.48 L387.98,843.52 Q387.98,848 384.1,850.24 L336.43,877.76 Q332.55,880 328.67,877.76 L281.01,850.24 Q277.13,848 277.13,843.52 L277.13,788.48 Q277.13,784 281.01,781.76 Z" fill="none" stroke="#FAF8F6" stroke-width="0.75"></path>
  <path d="M439.53,754.24 Q443.41,752 447.28,754.24 L494.95,781.76 Q498.83,784 498.83,788.48 L498.83,843.52 Q498.83,848 494.95,850.24 L447.28,877.76 Q443.41,880 439.53,877.76 L391.86,850.24 Q387.98,848 387.98,843.52 L387.98,788.48 Q387.98,784 391.86,781.76 Z" fill="none" stroke="#FAF8F6" stroke-width="0.75"></path>
  <path d="M550.38,754.24 Q554.26,752 558.14,754.24 L605.8,781.76 Q609.68,784 609.68,788.48 L609.68,843.52 Q609.68,848 605.8,850.24 L558.14,877.76 Q554.26,880 550.38,877.76 L502.71,850.24 Q498.83,848 498.83,843.52 L498.83,788.48 Q498.83,784 502.71,781.76 Z" fill="none" stroke="#FAF8F6" stroke-width="0.75"></path>
  <path d="M661.23,754.24 Q665.11,752 668.99,754.24 L716.65,781.76 Q720.53,784 720.53,788.48 L720.53,843.52 Q720.53,848 716.65,850.24 L668.99,877.76 Q665.11,880 661.23,877.76 L613.56,850.24 Q609.68,848 609.68,843.52 L609.68,788.48 Q609.68,784 613.56,781.76 Z" fill="none" stroke="#FAF8F6" stroke-width="0.75"></path>
  <path d="M772.08,754.24 Q775.96,752 779.84,754.24 L827.5,781.76 Q831.38,784 831.38,788.48 L831.38,843.52 Q831.38,848 827.5,850.24 L779.84,877.76 Q775.96,880 772.08,877.76 L724.41,850.24 Q720.53,848 720.53,843.52 L720.53,788.48 Q720.53,784 724.41,781.76 Z" fill="none" stroke="#FAF8F6" stroke-width="0.75"></path>
  <path d="M882.93,754.24 Q886.81,752 890.69,754.24 L938.36,781.76 Q942.24,784 942.24,788.48 L942.24,843.52 Q942.24,848 938.36,850.24 L890.69,877.76 Q886.81,880 882.93,877.76 L835.26,850.24 Q831.38,848 831.38,843.52 L831.38,788.48 Q831.38,784 835.26,781.76 Z" fill="none" stroke="#FAF8F6" stroke-width="0.75"></path>
  <path d="M993.78,754.24 Q997.66,752 1001.54,754.24 L1049.21,781.76 Q1053.09,784 1053.09,788.48 L1053.09,843.52 Q1053.09,848 1049.21,850.24 L1001.54,877.76 Q997.66,880 993.78,877.76 L946.12,850.24 Q942.24,848 942.24,843.52 L942.24,788.48 Q942.24,784 946.12,781.76 Z" fill="none" stroke="#FAF8F6" stroke-width="0.75"></path>
</svg>