<svg xmlns="http://www.w3.org/2000/svg" viewBox="0 0 760 480" fill="none">
  <path d="M176.48,56.65 Q188,50 199.52,56.65 L341.03,138.35 Q352.54,145 352.54,158.3 L352.54,321.7 Q352.54,335 341.03,341.65 L199.52,423.35 Q188,430 176.48,423.35 L34.97,341.65 Q23.46,335 23.46,321.7 L23.46,158.3 Q23.46,145 34.97,138.35 Z" fill="none" stroke="#FAF8F6" stroke-width="1.5"></path>
  <path d="M510.57,56.65 Q522.09,50 533.61,56.65 L675.12,138.35 Q686.63,145 686.63,158.3 L686.63,321.7 Q686.63,335 675.12,341.65 L533.61,423.35 Q522.09,430 510.57,423.35 L369.06,341.65 Q357.54,335 357.54,321.7 L357.54,158.3 Q357.54,145 369.06,138.35 Z" fill="none" stroke="#FAF8F6" stroke-width="1.5"></path>
</svg>