<svg xmlns="http://www.w3.org/2000/svg" viewBox="0 0 760 600" fill="none">
  <path d="M252.88,92 Q265,85 277.12,92 L426.08,178 Q438.21,185 438.21,199 L438.21,371 Q438.21,385 426.08,392 L277.12,478 Q265,485 252.88,478 L103.92,392 Q91.79,385 91.79,371 L91.79,199 Q91.79,185 103.92,178 Z" fill="none" stroke="#FAF8F6" stroke-width="1.5"></path>
  <path d="M502.24,36.48 Q510,32 517.76,36.48 L613.09,91.52 Q620.85,96 620.85,104.96 L620.85,215.04 Q620.85,224 613.09,228.48 L517.76,283.52 Q510,288 502.24,283.52 L406.91,228.48 Q399.15,224 399.15,215.04 L399.15,104.96 Q399.15,96 406.91,91.52 Z" fill="none" stroke="#FAF8F6" stroke-width="1.5"></path>
  <path d="M446.67,327.08 Q452,324 457.33,327.08 L522.88,364.92 Q528.21,368 528.21,374.16 L528.21,449.84 Q528.21,456 522.88,459.08 L457.33,496.92 Q452,500 446.67,496.92 L381.12,459.08 Q375.79,456 375.79,449.84 L375.79,374.16 Q375.79,368 381.12,364.92 Z" fill="none" stroke="#FAF8F6" stroke-width="1.5"></path>
</svg>