<svg xmlns="http://www.w3.org/2000/svg" width="200" height="230" viewBox="0 0 200 230">
  <defs><clipPath id="hx"><path d="M93.07,27 A8,8 0 0 0 106.93,27 L172.75,65 A8,8 0 0 0 179.67,77 L179.67,153 A8,8 0 0 0 172.75,165 L106.93,203 A8,8 0 0 0 93.07,203 L27.25,165 A8,8 0 0 0 20.33,153 L20.33,77 A8,8 0 0 0 27.25,65 Z"></path></clipPath></defs>
  <g clip-path="url(#hx)" fill="none" stroke="#FAF8F6"><path d="M93.07,28 A8,8 0 0 0 106.93,28 L171.88,65.5 A8,8 0 0 0 178.81,77.5 L178.81,152.5 A8,8 0 0 0 171.88,164.5 L106.93,202 A8,8 0 0 0 93.07,202 L28.12,164.5 A8,8 0 0 0 21.19,152.5 L21.19,77.5 A8,8 0 0 0 28.12,65.5 Z" fill="none" stroke-width="2.5"></path><path d="M93.07,41 A8,8 0 0 0 106.93,41 L160.62,72 A8,8 0 0 0 167.55,84 L167.55,146 A8,8 0 0 0 160.62,158 L106.93,189 A8,8 0 0 0 93.07,189 L39.38,158 A8,8 0 0 0 32.45,146 L32.45,84 A8,8 0 0 0 39.38,72 Z" fill="none" stroke-width="2.5"></path><path d="M93.07,54 A8,8 0 0 0 106.93,54 L149.36,78.5 A8,8 0 0 0 156.29,90.5 L156.29,139.5 A8,8 0 0 0 149.36,151.5 L106.93,176 A8,8 0 0 0 93.07,176 L50.64,151.5 A8,8 0 0 0 43.71,139.5 L43.71,90.5 A8,8 0 0 0 50.64,78.5 Z" fill="none" stroke-width="2.5"></path><path d="M93.07,67 A8,8 0 0 0 106.93,67 L138.11,85 A8,8 0 0 0 145.03,97 L145.03,133 A8,8 0 0 0 138.11,145 L106.93,163 A8,8 0 0 0 93.07,163 L61.89,145 A8,8 0 0 0 54.97,133 L54.97,97 A8,8 0 0 0 61.89,85 Z" fill="none" stroke-width="2.5"></path><path d="M93.07,80 A8,8 0 0 0 106.93,80 L126.85,91.5 A8,8 0 0 0 133.77,103.5 L133.77,126.5 A8,8 0 0 0 126.85,138.5 L106.93,150 A8,8 0 0 0 93.07,150 L73.15,138.5 A8,8 0 0 0 66.23,126.5 L66.23,103.5 A8,8 0 0 0 73.15,91.5 Z" fill="none" stroke-width="2.5"></path><path d="M93.07,93 A8,8 0 0 0 106.93,93 L115.59,98 A8,8 0 0 0 122.52,110 L122.52,120 A8,8 0 0 0 115.59,132 L106.93,137 A8,8 0 0 0 93.07,137 L84.41,132 A8,8 0 0 0 77.48,120 L77.48,110 A8,8 0 0 0 84.41,98 Z" fill="none" stroke-width="2.5"></path><path d="M95.05,104.86 A5.72,5.72 0 0 0 104.95,104.86 L106.3,105.64 A5.72,5.72 0 0 0 111.26,114.22 L111.26,115.78 A5.72,5.72 0 0 0 106.3,124.36 L104.95,125.14 A5.72,5.72 0 0 0 95.05,125.14 L93.7,124.36 A5.72,5.72 0 0 0 88.74,115.78 L88.74,114.22 A5.72,5.72 0 0 0 93.7,105.64 Z" fill="none" stroke-width="2.5"></path></g>
</svg>