<svg xmlns="http://www.w3.org/2000/svg" width="200" height="230" viewBox="0 0 200 230">
  <defs><clipPath id="hx"><path d="M93.07,27 A8,8 0 0 0 106.93,27 L172.75,65 A8,8 0 0 0 179.67,77 L179.67,153 A8,8 0 0 0 172.75,165 L106.93,203 A8,8 0 0 0 93.07,203 L27.25,165 A8,8 0 0 0 20.33,153 L20.33,77 A8,8 0 0 0 27.25,65 Z"></path></clipPath></defs>
  <g clip-path="url(#hx)" fill="none" stroke="#2D3748">
<path d="M70.12,4.25 A2.5,2.5 0 0 0 74.45,4.25 L83.98,9.75 A2.5,2.5 0 0 0 86.14,13.5 L86.14,24.5 A2.5,2.5 0 0 0 83.98,28.25 L74.45,33.75 A2.5,2.5 0 0 0 70.12,33.75 L60.6,28.25 A2.5,2.5 0 0 0 58.43,24.5 L58.43,13.5 A2.5,2.5 0 0 0 60.6,9.75 Z" fill="none" stroke-width="2"></path><path d="M97.83,4.25 A2.5,2.5 0 0 0 102.17,4.25 L111.69,9.75 A2.5,2.5 0 0 0 113.86,13.5 L113.86,24.5 A2.5,2.5 0 0 0 111.69,28.25 L102.17,33.75 A2.5,2.5 0 0 0 97.83,33.75 L88.31,28.25 A2.5,2.5 0 0 0 86.14,24.5 L86.14,13.5 A2.5,2.5 0 0 0 88.31,9.75 Z" fill="none" stroke-width="2"></path><path d="M125.55,4.25 A2.5,2.5 0 0 0 129.88,4.25 L139.4,9.75 A2.5,2.5 0 0 0 141.57,13.5 L141.57,24.5 A2.5,2.5 0 0 0 139.4,28.25 L129.88,33.75 A2.5,2.5 0 0 0 125.55,33.75 L116.02,28.25 A2.5,2.5 0 0 0 113.86,24.5 L113.86,13.5 A2.5,2.5 0 0 0 116.02,9.75 Z" fill="none" stroke-width="2"></path><path d="M28.55,28.25 A2.5,2.5 0 0 0 32.88,28.25 L42.41,33.75 A2.5,2.5 0 0 0 44.57,37.5 L44.57,48.5 A2.5,2.5 0 0 0 42.41,52.25 L32.88,57.75 A2.5,2.5 0 0 0 28.55,57.75 L19.03,52.25 A2.5,2.5 0 0 0 16.86,48.5 L16.86,37.5 A2.5,2.5 0 0 0 19.03,33.75 Z" fill="none" stroke-width="2"></path><path d="M56.27,28.25 A2.5,2.5 0 0 0 60.6,28.25 L70.12,33.75 A2.5,2.5 0 0 0 72.29,37.5 L72.29,48.5 A2.5,2.5 0 0 0 70.12,52.25 L60.6,57.75 A2.5,2.5 0 0 0 56.27,57.75 L46.74,52.25 A2.5,2.5 0 0 0 44.57,48.5 L44.57,37.5 A2.5,2.5 0 0 0 46.74,33.75 Z" fill="none" stroke-width="2"></path><path d="M83.98,28.25 A2.5,2.5 0 0 0 88.31,28.25 L97.83,33.75 A2.5,2.5 0 0 0 100,37.5 L100,48.5 A2.5,2.5 0 0 0 97.83,52.25 L88.31,57.75 A2.5,2.5 0 0 0 83.98,57.75 L74.45,52.25 A2.5,2.5 0 0 0 72.29,48.5 L72.29,37.5 A2.5,2.5 0 0 0 74.45,33.75 Z" fill="none" stroke-width="2"></path><path d="M111.69,28.25 A2.5,2.5 0 0 0 116.02,28.25 L125.55,33.75 A2.5,2.5 0 0 0 127.71,37.5 L127.71,48.5 A2.5,2.5 0 0 0 125.55,52.25 L116.02,57.75 A2.5,2.5 0 0 0 111.69,57.75 L102.17,52.25 A2.5,2.5 0 0 0 100,48.5 L100,37.5 A2.5,2.5 0 0 0 102.17,33.75 Z" fill="none" stroke-width="2"></path><path d="M139.4,28.25 A2.5,2.5 0 0 0 143.73,28.25 L153.26,33.75 A2.5,2.5 0 0 0 155.43,37.5 L155.43,48.5 A2.5,2.5 0 0 0 153.26,52.25 L143.73,57.75 A2.5,2.5 0 0 0 139.4,57.75 L129.88,52.25 A2.5,2.5 0 0 0 127.71,48.5 L127.71,37.5 A2.5,2.5 0 0 0 129.88,33.75 Z" fill="none" stroke-width="2"></path><path d="M167.12,28.25 A2.5,2.5 0 0 0 171.45,28.25 L180.97,33.75 A2.5,2.5 0 0 0 183.14,37.5 L183.14,48.5 A2.5,2.5 0 0 0 180.97,52.25 L171.45,57.75 A2.5,2.5 0 0 0 167.12,57.75 L157.59,52.25 A2.5,2.5 0 0 0 155.43,48.5 L155.43,37.5 A2.5,2.5 0 0 0 157.59,33.75 Z" fill="none" stroke-width="2"></path><path d="M14.7,52.25 A2.5,2.5 0 0 0 19.03,52.25 L28.55,57.75 A2.5,2.5 0 0 0 30.72,61.5 L30.72,72.5 A2.5,2.5 0 0 0 28.55,76.25 L19.03,81.75 A2.5,2.5 0 0 0 14.7,81.75 L5.17,76.25 A2.5,2.5 0 0 0 3.01,72.5 L3.01,61.5 A2.5,2.5 0 0 0 5.17,57.75 Z" fill="none" stroke-width="2"></path><path d="M42.41,52.25 A2.5,2.5 0 0 0 46.74,52.25 L56.27,57.75 A2.5,2.5 0 0 0 58.43,61.5 L58.43,72.5 A2.5,2.5 0 0 0 56.27,76.25 L46.74,81.75 A2.5,2.5 0 0 0 42.41,81.75 L32.88,76.25 A2.5,2.5 0 0 0 30.72,72.5 L30.72,61.5 A2.5,2.5 0 0 0 32.88,57.75 Z" fill="none" stroke-width="2"></path><path d="M70.12,52.25 A2.5,2.5 0 0 0 74.45,52.25 L83.98,57.75 A2.5,2.5 0 0 0 86.14,61.5 L86.14,72.5 A2.5,2.5 0 0 0 83.98,76.25 L74.45,81.75 A2.5,2.5 0 0 0 70.12,81.75 L60.6,76.25 A2.5,2.5 0 0 0 58.43,72.5 L58.43,61.5 A2.5,2.5 0 0 0 60.6,57.75 Z" fill="none" stroke-width="2"></path><path d="M97.83,52.25 A2.5,2.5 0 0 0 102.17,52.25 L111.69,57.75 A2.5,2.5 0 0 0 113.86,61.5 L113.86,72.5 A2.5,2.5 0 0 0 111.69,76.25 L102.17,81.75 A2.5,2.5 0 0 0 97.83,81.75 L88.31,76.25 A2.5,2.5 0 0 0 86.14,72.5 L86.14,61.5 A2.5,2.5 0 0 0 88.31,57.75 Z" fill="none" stroke-width="2"></path><path d="M125.55,52.25 A2.5,2.5 0 0 0 129.88,52.25 L139.4,57.75 A2.5,2.5 0 0 0 141.57,61.5 L141.57,72.5 A2.5,2.5 0 0 0 139.4,76.25 L129.88,81.75 A2.5,2.5 0 0 0 125.55,81.75 L116.02,76.25 A2.5,2.5 0 0 0 113.86,72.5 L113.86,61.5 A2.5,2.5 0 0 0 116.02,57.75 Z" fill="none" stroke-width="2"></path><path d="M153.26,52.25 A2.5,2.5 0 0 0 157.59,52.25 L167.12,57.75 A2.5,2.5 0 0 0 169.28,61.5 L169.28,72.5 A2.5,2.5 0 0 0 167.12,76.25 L157.59,81.75 A2.5,2.5 0 0 0 153.26,81.75 L143.73,76.25 A2.5,2.5 0 0 0 141.57,72.5 L141.57,61.5 A2.5,2.5 0 0 0 143.73,57.75 Z" fill="none" stroke-width="2"></path><path d="M180.97,52.25 A2.5,2.5 0 0 0 185.3,52.25 L194.83,57.75 A2.5,2.5 0 0 0 196.99,61.5 L196.99,72.5 A2.5,2.5 0 0 0 194.83,76.25 L185.3,81.75 A2.5,2.5 0 0 0 180.97,81.75 L171.45,76.25 A2.5,2.5 0 0 0 169.28,72.5 L169.28,61.5 A2.5,2.5 0 0 0 171.45,57.75 Z" fill="none" stroke-width="2"></path><path d="M0.84,76.25 A2.5,2.5 0 0 0 5.17,76.25 L14.7,81.75 A2.5,2.5 0 0 0 16.86,85.5 L16.86,96.5 A2.5,2.5 0 0 0 14.7,100.25 L5.17,105.75 A2.5,2.5 0 0 0 0.84,105.75 L-8.69,100.25 A2.5,2.5 0 0 0 -10.85,96.5 L-10.85,85.5 A2.5,2.5 0 0 0 -8.69,81.75 Z" fill="none" stroke-width="2"></path><path d="M28.55,76.25 A2.5,2.5 0 0 0 32.88,76.25 L42.41,81.75 A2.5,2.5 0 0 0 44.57,85.5 L44.57,96.5 A2.5,2.5 0 0 0 42.41,100.25 L32.88,105.75 A2.5,2.5 0 0 0 28.55,105.75 L19.03,100.25 A2.5,2.5 0 0 0 16.86,96.5 L16.86,85.5 A2.5,2.5 0 0 0 19.03,81.75 Z" fill="none" stroke-width="2"></path><path d="M56.27,76.25 A2.5,2.5 0 0 0 60.6,76.25 L70.12,81.75 A2.5,2.5 0 0 0 72.29,85.5 L72.29,96.5 A2.5,2.5 0 0 0 70.12,100.25 L60.6,105.75 A2.5,2.5 0 0 0 56.27,105.75 L46.74,100.25 A2.5,2.5 0 0 0 44.57,96.5 L44.57,85.5 A2.5,2.5 0 0 0 46.74,81.75 Z" fill="none" stroke-width="2"></path><path d="M83.98,76.25 A2.5,2.5 0 0 0 88.31,76.25 L97.83,81.75 A2.5,2.5 0 0 0 100,85.5 L100,96.5 A2.5,2.5 0 0 0 97.83,100.25 L88.31,105.75 A2.5,2.5 0 0 0 83.98,105.75 L74.45,100.25 A2.5,2.5 0 0 0 72.29,96.5 L72.29,85.5 A2.5,2.5 0 0 0 74.45,81.75 Z" fill="none" stroke-width="2"></path><path d="M111.69,76.25 A2.5,2.5 0 0 0 116.02,76.25 L125.55,81.75 A2.5,2.5 0 0 0 127.71,85.5 L127.71,96.5 A2.5,2.5 0 0 0 125.55,100.25 L116.02,105.75 A2.5,2.5 0 0 0 111.69,105.75 L102.17,100.25 A2.5,2.5 0 0 0 100,96.5 L100,85.5 A2.5,2.5 0 0 0 102.17,81.75 Z" fill="none" stroke-width="2"></path><path d="M139.4,76.25 A2.5,2.5 0 0 0 143.73,76.25 L153.26,81.75 A2.5,2.5 0 0 0 155.43,85.5 L155.43,96.5 A2.5,2.5 0 0 0 153.26,100.25 L143.73,105.75 A2.5,2.5 0 0 0 139.4,105.75 L129.88,100.25 A2.5,2.5 0 0 0 127.71,96.5 L127.71,85.5 A2.5,2.5 0 0 0 129.88,81.75 Z" fill="none" stroke-width="2"></path><path d="M167.12,76.25 A2.5,2.5 0 0 0 171.45,76.25 L180.97,81.75 A2.5,2.5 0 0 0 183.14,85.5 L183.14,96.5 A2.5,2.5 0 0 0 180.97,100.25 L171.45,105.75 A2.5,2.5 0 0 0 167.12,105.75 L157.59,100.25 A2.5,2.5 0 0 0 155.43,96.5 L155.43,85.5 A2.5,2.5 0 0 0 157.59,81.75 Z" fill="none" stroke-width="2"></path><path d="M194.83,76.25 A2.5,2.5 0 0 0 199.16,76.25 L208.69,81.75 A2.5,2.5 0 0 0 210.85,85.5 L210.85,96.5 A2.5,2.5 0 0 0 208.69,100.25 L199.16,105.75 A2.5,2.5 0 0 0 194.83,105.75 L185.3,100.25 A2.5,2.5 0 0 0 183.14,96.5 L183.14,85.5 A2.5,2.5 0 0 0 185.3,81.75 Z" fill="none" stroke-width="2"></path><path d="M14.7,100.25 A2.5,2.5 0 0 0 19.03,100.25 L28.55,105.75 A2.5,2.5 0 0 0 30.72,109.5 L30.72,120.5 A2.5,2.5 0 0 0 28.55,124.25 L19.03,129.75 A2.5,2.5 0 0 0 14.7,129.75 L5.17,124.25 A2.5,2.5 0 0 0 3.01,120.5 L3.01,109.5 A2.5,2.5 0 0 0 5.17,105.75 Z" fill="none" stroke-width="2"></path><path d="M42.41,100.25 A2.5,2.5 0 0 0 46.74,100.25 L56.27,105.75 A2.5,2.5 0 0 0 58.43,109.5 L58.43,120.5 A2.5,2.5 0 0 0 56.27,124.25 L46.74,129.75 A2.5,2.5 0 0 0 42.41,129.75 L32.88,124.25 A2.5,2.5 0 0 0 30.72,120.5 L30.72,109.5 A2.5,2.5 0 0 0 32.88,105.75 Z" fill="none" stroke-width="2"></path><path d="M70.12,100.25 A2.5,2.5 0 0 0 74.45,100.25 L83.98,105.75 A2.5,2.5 0 0 0 86.14,109.5 L86.14,120.5 A2.5,2.5 0 0 0 83.98,124.25 L74.45,129.75 A2.5,2.5 0 0 0 70.12,129.75 L60.6,124.25 A2.5,2.5 0 0 0 58.43,120.5 L58.43,109.5 A2.5,2.5 0 0 0 60.6,105.75 Z" fill="none" stroke-width="2"></path><path d="M97.83,100.25 A2.5,2.5 0 0 0 102.17,100.25 L111.69,105.75 A2.5,2.5 0 0 0 113.86,109.5 L113.86,120.5 A2.5,2.5 0 0 0 111.69,124.25 L102.17,129.75 A2.5,2.5 0 0 0 97.83,129.75 L88.31,124.25 A2.5,2.5 0 0 0 86.14,120.5 L86.14,109.5 A2.5,2.5 0 0 0 88.31,105.75 Z" fill="none" stroke-width="2"></path><path d="M125.55,100.25 A2.5,2.5 0 0 0 129.88,100.25 L139.4,105.75 A2.5,2.5 0 0 0 141.57,109.5 L141.57,120.5 A2.5,2.5 0 0 0 139.4,124.25 L129.88,129.75 A2.5,2.5 0 0 0 125.55,129.75 L116.02,124.25 A2.5,2.5 0 0 0 113.86,120.5 L113.86,109.5 A2.5,2.5 0 0 0 116.02,105.75 Z" fill="none" stroke-width="2"></path><path d="M153.26,100.25 A2.5,2.5 0 0 0 157.59,100.25 L167.12,105.75 A2.5,2.5 0 0 0 169.28,109.5 L169.28,120.5 A2.5,2.5 0 0 0 167.12,124.25 L157.59,129.75 A2.5,2.5 0 0 0 153.26,129.75 L143.73,124.25 A2.5,2.5 0 0 0 141.57,120.5 L141.57,109.5 A2.5,2.5 0 0 0 143.73,105.75 Z" fill="none" stroke-width="2"></path><path d="M180.97,100.25 A2.5,2.5 0 0 0 185.3,100.25 L194.83,105.75 A2.5,2.5 0 0 0 196.99,109.5 L196.99,120.5 A2.5,2.5 0 0 0 194.83,124.25 L185.3,129.75 A2.5,2.5 0 0 0 180.97,129.75 L171.45,124.25 A2.5,2.5 0 0 0 169.28,120.5 L169.28,109.5 A2.5,2.5 0 0 0 171.45,105.75 Z" fill="none" stroke-width="2"></path><path d="M0.84,124.25 A2.5,2.5 0 0 0 5.17,124.25 L14.7,129.75 A2.5,2.5 0 0 0 16.86,133.5 L16.86,144.5 A2.5,2.5 0 0 0 14.7,148.25 L5.17,153.75 A2.5,2.5 0 0 0 0.84,153.75 L-8.69,148.25 A2.5,2.5 0 0 0 -10.85,144.5 L-10.85,133.5 A2.5,2.5 0 0 0 -8.69,129.75 Z" fill="none" stroke-width="2"></path><path d="M28.55,124.25 A2.5,2.5 0 0 0 32.88,124.25 L42.41,129.75 A2.5,2.5 0 0 0 44.57,133.5 L44.57,144.5 A2.5,2.5 0 0 0 42.41,148.25 L32.88,153.75 A2.5,2.5 0 0 0 28.55,153.75 L19.03,148.25 A2.5,2.5 0 0 0 16.86,144.5 L16.86,133.5 A2.5,2.5 0 0 0 19.03,129.75 Z" fill="none" stroke-width="2"></path><path d="M56.27,124.25 A2.5,2.5 0 0 0 60.6,124.25 L70.12,129.75 A2.5,2.5 0 0 0 72.29,133.5 L72.29,144.5 A2.5,2.5 0 0 0 70.12,148.25 L60.6,153.75 A2.5,2.5 0 0 0 56.27,153.75 L46.74,148.25 A2.5,2.5 0 0 0 44.57,144.5 L44.57,133.5 A2.5,2.5 0 0 0 46.74,129.75 Z" fill="none" stroke-width="2"></path><path d="M83.98,124.25 A2.5,2.5 0 0 0 88.31,124.25 L97.83,129.75 A2.5,2.5 0 0 0 100,133.5 L100,144.5 A2.5,2.5 0 0 0 97.83,148.25 L88.31,153.75 A2.5,2.5 0 0 0 83.98,153.75 L74.45,148.25 A2.5,2.5 0 0 0 72.29,144.5 L72.29,133.5 A2.5,2.5 0 0 0 74.45,129.75 Z" fill="none" stroke-width="2"></path><path d="M111.69,124.25 A2.5,2.5 0 0 0 116.02,124.25 L125.55,129.75 A2.5,2.5 0 0 0 127.71,133.5 L127.71,144.5 A2.5,2.5 0 0 0 125.55,148.25 L116.02,153.75 A2.5,2.5 0 0 0 111.69,153.75 L102.17,148.25 A2.5,2.5 0 0 0 100,144.5 L100,133.5 A2.5,2.5 0 0 0 102.17,129.75 Z" fill="none" stroke-width="2"></path><path d="M139.4,124.25 A2.5,2.5 0 0 0 143.73,124.25 L153.26,129.75 A2.5,2.5 0 0 0 155.43,133.5 L155.43,144.5 A2.5,2.5 0 0 0 153.26,148.25 L143.73,153.75 A2.5,2.5 0 0 0 139.4,153.75 L129.88,148.25 A2.5,2.5 0 0 0 127.71,144.5 L127.71,133.5 A2.5,2.5 0 0 0 129.88,129.75 Z" fill="none" stroke-width="2"></path><path d="M167.12,124.25 A2.5,2.5 0 0 0 171.45,124.25 L180.97,129.75 A2.5,2.5 0 0 0 183.14,133.5 L183.14,144.5 A2.5,2.5 0 0 0 180.97,148.25 L171.45,153.75 A2.5,2.5 0 0 0 167.12,153.75 L157.59,148.25 A2.5,2.5 0 0 0 155.43,144.5 L155.43,133.5 A2.5,2.5 0 0 0 157.59,129.75 Z" fill="none" stroke-width="2"></path><path d="M194.83,124.25 A2.5,2.5 0 0 0 199.16,124.25 L208.69,129.75 A2.5,2.5 0 0 0 210.85,133.5 L210.85,144.5 A2.5,2.5 0 0 0 208.69,148.25 L199.16,153.75 A2.5,2.5 0 0 0 194.83,153.75 L185.3,148.25 A2.5,2.5 0 0 0 183.14,144.5 L183.14,133.5 A2.5,2.5 0 0 0 185.3,129.75 Z" fill="none" stroke-width="2"></path><path d="M14.7,148.25 A2.5,2.5 0 0 0 19.03,148.25 L28.55,153.75 A2.5,2.5 0 0 0 30.72,157.5 L30.72,168.5 A2.5,2.5 0 0 0 28.55,172.25 L19.03,177.75 A2.5,2.5 0 0 0 14.7,177.75 L5.17,172.25 A2.5,2.5 0 0 0 3.01,168.5 L3.01,157.5 A2.5,2.5 0 0 0 5.17,153.75 Z" fill="none" stroke-width="2"></path><path d="M42.41,148.25 A2.5,2.5 0 0 0 46.74,148.25 L56.27,153.75 A2.5,2.5 0 0 0 58.43,157.5 L58.43,168.5 A2.5,2.5 0 0 0 56.27,172.25 L46.74,177.75 A2.5,2.5 0 0 0 42.41,177.75 L32.88,172.25 A2.5,2.5 0 0 0 30.72,168.5 L30.72,157.5 A2.5,2.5 0 0 0 32.88,153.75 Z" fill="none" stroke-width="2"></path><path d="M70.12,148.25 A2.5,2.5 0 0 0 74.45,148.25 L83.98,153.75 A2.5,2.5 0 0 0 86.14,157.5 L86.14,168.5 A2.5,2.5 0 0 0 83.98,172.25 L74.45,177.75 A2.5,2.5 0 0 0 70.12,177.75 L60.6,172.25 A2.5,2.5 0 0 0 58.43,168.5 L58.43,157.5 A2.5,2.5 0 0 0 60.6,153.75 Z" fill="none" stroke-width="2"></path><path d="M97.83,148.25 A2.5,2.5 0 0 0 102.17,148.25 L111.69,153.75 A2.5,2.5 0 0 0 113.86,157.5 L113.86,168.5 A2.5,2.5 0 0 0 111.69,172.25 L102.17,177.75 A2.5,2.5 0 0 0 97.83,177.75 L88.31,172.25 A2.5,2.5 0 0 0 86.14,168.5 L86.14,157.5 A2.5,2.5 0 0 0 88.31,153.75 Z" fill="none" stroke-width="2"></path><path d="M125.55,148.25 A2.5,2.5 0 0 0 129.88,148.25 L139.4,153.75 A2.5,2.5 0 0 0 141.57,157.5 L141.57,168.5 A2.5,2.5 0 0 0 139.4,172.25 L129.88,177.75 A2.5,2.5 0 0 0 125.55,177.75 L116.02,172.25 A2.5,2.5 0 0 0 113.86,168.5 L113.86,157.5 A2.5,2.5 0 0 0 116.02,153.75 Z" fill="none" stroke-width="2"></path><path d="M153.26,148.25 A2.5,2.5 0 0 0 157.59,148.25 L167.12,153.75 A2.5,2.5 0 0 0 169.28,157.5 L169.28,168.5 A2.5,2.5 0 0 0 167.12,172.25 L157.59,177.75 A2.5,2.5 0 0 0 153.26,177.75 L143.73,172.25 A2.5,2.5 0 0 0 141.57,168.5 L141.57,157.5 A2.5,2.5 0 0 0 143.73,153.75 Z" fill="none" stroke-width="2"></path><path d="M180.97,148.25 A2.5,2.5 0 0 0 185.3,148.25 L194.83,153.75 A2.5,2.5 0 0 0 196.99,157.5 L196.99,168.5 A2.5,2.5 0 0 0 194.83,172.25 L185.3,177.75 A2.5,2.5 0 0 0 180.97,177.75 L171.45,172.25 A2.5,2.5 0 0 0 169.28,168.5 L169.28,157.5 A2.5,2.5 0 0 0 171.45,153.75 Z" fill="none" stroke-width="2"></path><path d="M28.55,172.25 A2.5,2.5 0 0 0 32.88,172.25 L42.41,177.75 A2.5,2.5 0 0 0 44.57,181.5 L44.57,192.5 A2.5,2.5 0 0 0 42.41,196.25 L32.88,201.75 A2.5,2.5 0 0 0 28.55,201.75 L19.03,196.25 A2.5,2.5 0 0 0 16.86,192.5 L16.86,181.5 A2.5,2.5 0 0 0 19.03,177.75 Z" fill="none" stroke-width="2"></path><path d="M56.27,172.25 A2.5,2.5 0 0 0 60.6,172.25 L70.12,177.75 A2.5,2.5 0 0 0 72.29,181.5 L72.29,192.5 A2.5,2.5 0 0 0 70.12,196.25 L60.6,201.75 A2.5,2.5 0 0 0 56.27,201.75 L46.74,196.25 A2.5,2.5 0 0 0 44.57,192.5 L44.57,181.5 A2.5,2.5 0 0 0 46.74,177.75 Z" fill="none" stroke-width="2"></path><path d="M83.98,172.25 A2.5,2.5 0 0 0 88.31,172.25 L97.83,177.75 A2.5,2.5 0 0 0 100,181.5 L100,192.5 A2.5,2.5 0 0 0 97.83,196.25 L88.31,201.75 A2.5,2.5 0 0 0 83.98,201.75 L74.45,196.25 A2.5,2.5 0 0 0 72.29,192.5 L72.29,181.5 A2.5,2.5 0 0 0 74.45,177.75 Z" fill="none" stroke-width="2"></path><path d="M111.69,172.25 A2.5,2.5 0 0 0 116.02,172.25 L125.55,177.75 A2.5,2.5 0 0 0 127.71,181.5 L127.71,192.5 A2.5,2.5 0 0 0 125.55,196.25 L116.02,201.75 A2.5,2.5 0 0 0 111.69,201.75 L102.17,196.25 A2.5,2.5 0 0 0 100,192.5 L100,181.5 A2.5,2.5 0 0 0 102.17,177.75 Z" fill="none" stroke-width="2"></path><path d="M139.4,172.25 A2.5,2.5 0 0 0 143.73,172.25 L153.26,177.75 A2.5,2.5 0 0 0 155.43,181.5 L155.43,192.5 A2.5,2.5 0 0 0 153.26,196.25 L143.73,201.75 A2.5,2.5 0 0 0 139.4,201.75 L129.88,196.25 A2.5,2.5 0 0 0 127.71,192.5 L127.71,181.5 A2.5,2.5 0 0 0 129.88,177.75 Z" fill="none" stroke-width="2"></path><path d="M167.12,172.25 A2.5,2.5 0 0 0 171.45,172.25 L180.97,177.75 A2.5,2.5 0 0 0 183.14,181.5 L183.14,192.5 A2.5,2.5 0 0 0 180.97,196.25 L171.45,201.75 A2.5,2.5 0 0 0 167.12,201.75 L157.59,196.25 A2.5,2.5 0 0 0 155.43,192.5 L155.43,181.5 A2.5,2.5 0 0 0 157.59,177.75 Z" fill="none" stroke-width="2"></path><path d="M70.12,196.25 A2.5,2.5 0 0 0 74.45,196.25 L83.98,201.75 A2.5,2.5 0 0 0 86.14,205.5 L86.14,216.5 A2.5,2.5 0 0 0 83.98,220.25 L74.45,225.75 A2.5,2.5 0 0 0 70.12,225.75 L60.6,220.25 A2.5,2.5 0 0 0 58.43,216.5 L58.43,205.5 A2.5,2.5 0 0 0 60.6,201.75 Z" fill="none" stroke-width="2"></path><path d="M97.83,196.25 A2.5,2.5 0 0 0 102.17,196.25 L111.69,201.75 A2.5,2.5 0 0 0 113.86,205.5 L113.86,216.5 A2.5,2.5 0 0 0 111.69,220.25 L102.17,225.75 A2.5,2.5 0 0 0 97.83,225.75 L88.31,220.25 A2.5,2.5 0 0 0 86.14,216.5 L86.14,205.5 A2.5,2.5 0 0 0 88.31,201.75 Z" fill="none" stroke-width="2"></path><path d="M125.55,196.25 A2.5,2.5 0 0 0 129.88,196.25 L139.4,201.75 A2.5,2.5 0 0 0 141.57,205.5 L141.57,216.5 A2.5,2.5 0 0 0 139.4,220.25 L129.88,225.75 A2.5,2.5 0 0 0 125.55,225.75 L116.02,220.25 A2.5,2.5 0 0 0 113.86,216.5 L113.86,205.5 A2.5,2.5 0 0 0 116.02,201.75 Z" fill="none" stroke-width="2"></path>
</g></svg>