<svg xmlns="http://www.w3.org/2000/svg" width="200" height="230" viewBox="0 0 200 230">
  <defs><clipPath id="hx"><path d="M93.07,27 A8,8 0 0 0 106.93,27 L172.75,65 A8,8 0 0 0 179.67,77 L179.67,153 A8,8 0 0 0 172.75,165 L106.93,203 A8,8 0 0 0 93.07,203 L27.25,165 A8,8 0 0 0 20.33,153 L20.33,77 A8,8 0 0 0 27.25,65 Z"></path></clipPath></defs>
  <g clip-path="url(#hx)" fill="none" stroke="#10B981"><path d="M92.55,28.3 A8.6,8.6 0 0 0 107.45,28.3 L171.36,65.2 A8.6,8.6 0 0 0 178.81,78.1 L178.81,151.9 A8.6,8.6 0 0 0 171.36,164.8 L107.45,201.7 A8.6,8.6 0 0 0 92.55,201.7 L28.64,164.8 A8.6,8.6 0 0 0 21.19,151.9 L21.19,78.1 A8.6,8.6 0 0 0 28.64,65.2 Z" fill="none" stroke-width="2.5"></path><path d="M106.05,41.65 A15.17,15.17 0 0 0 131.44,48.46 L166.54,83.56 A15.17,15.17 0 0 0 173.35,108.95 L160.5,156.91 A15.17,15.17 0 0 0 141.91,175.5 L93.95,188.35 A15.17,15.17 0 0 0 68.56,181.54 L33.46,146.44 A15.17,15.17 0 0 0 26.65,121.05 L39.5,73.09 A15.17,15.17 0 0 0 58.09,54.5 Z" fill="none" stroke-width="2.5"></path><path d="M81.16,56.88 A21.75,21.75 0 0 0 118.84,56.88 L140.92,69.63 A21.75,21.75 0 0 0 159.76,102.25 L159.76,127.75 A21.75,21.75 0 0 0 140.92,160.38 L118.84,173.13 A21.75,21.75 0 0 0 81.16,173.13 L59.08,160.38 A21.75,21.75 0 0 0 40.24,127.75 L40.24,102.25 A21.75,21.75 0 0 0 59.08,69.63 Z" fill="none" stroke-width="2.5"></path><path d="M90.36,65.58 A25.52,25.52 0 0 0 133.06,77.02 L137.98,81.94 A25.52,25.52 0 0 0 149.42,124.64 L147.62,131.36 A25.52,25.52 0 0 0 116.36,162.62 L109.64,164.42 A25.52,25.52 0 0 0 66.94,152.98 L62.02,148.06 A25.52,25.52 0 0 0 50.58,105.36 L52.38,98.64 A25.52,25.52 0 0 0 83.64,67.38 Z" fill="none" stroke-width="2.5"></path><path d="M82.09,78.34 A20.68,20.68 0 0 0 117.91,78.34 L122.79,81.16 A20.68,20.68 0 0 0 140.7,112.18 L140.7,117.82 A20.68,20.68 0 0 0 122.79,148.84 L117.91,151.66 A20.68,20.68 0 0 0 82.09,151.66 L77.21,148.84 A20.68,20.68 0 0 0 59.3,117.82 L59.3,112.18 A20.68,20.68 0 0 0 77.21,81.16 Z" fill="none" stroke-width="2.5"></path><path d="M94.02,84.33 A15.84,15.84 0 0 0 120.52,91.43 L123.57,94.48 A15.84,15.84 0 0 0 130.67,120.98 L129.56,125.16 A15.84,15.84 0 0 0 110.16,144.56 L105.98,145.67 A15.84,15.84 0 0 0 79.48,138.57 L76.43,135.52 A15.84,15.84 0 0 0 69.33,109.02 L70.44,104.84 A15.84,15.84 0 0 0 89.84,85.44 Z" fill="none" stroke-width="2.5"></path><path d="M90.47,95.5 A11,11 0 0 0 109.53,95.5 L112.77,97.36 A11,11 0 0 0 123.77,115.42 L123.77,114.58 A11,11 0 0 0 112.77,132.64 L109.53,134.5 A11,11 0 0 0 90.47,134.5 L87.23,132.64 A11,11 0 0 0 76.23,114.58 L76.23,115.42 A11,11 0 0 0 87.23,97.36 Z" fill="none" stroke-width="2.5"></path></g>
</svg>