<svg xmlns="http://www.w3.org/2000/svg" width="200" height="230" viewBox="0 0 200 230">
  <defs><clipPath id="hx"><path d="M93.07,27 A8,8 0 0 0 106.93,27 L172.75,65 A8,8 0 0 0 179.67,77 L179.67,153 A8,8 0 0 0 172.75,165 L106.93,203 A8,8 0 0 0 93.07,203 L27.25,165 A8,8 0 0 0 20.33,153 L20.33,77 A8,8 0 0 0 27.25,65 Z"></path></clipPath></defs>
  <g clip-path="url(#hx)" fill="none" stroke="#2D3748">
<line x1="-160" y1="-145" x2="-160" y2="375" stroke-width="1.8"></line><line x1="-145" y1="-145" x2="-145" y2="375" stroke-width="1.8"></line><line x1="-130" y1="-145" x2="-130" y2="375" stroke-width="1.8"></line><line x1="-115" y1="-145" x2="-115" y2="375" stroke-width="1.8"></line><line x1="-100" y1="-145" x2="-100" y2="375" stroke-width="1.8"></line><line x1="-85" y1="-145" x2="-85" y2="375" stroke-width="1.8"></line><line x1="-70" y1="-145" x2="-70" y2="375" stroke-width="1.8"></line><line x1="-55" y1="-145" x2="-55" y2="375" stroke-width="1.8"></line><line x1="-40" y1="-145" x2="-40" y2="375" stroke-width="1.8"></line><line x1="-25" y1="-145" x2="-25" y2="375" stroke-width="1.8"></line><line x1="-10" y1="-145" x2="-10" y2="375" stroke-width="1.8"></line><line x1="5" y1="-145" x2="5" y2="375" stroke-width="1.8"></line><line x1="20" y1="-145" x2="20" y2="375" stroke-width="1.8"></line><line x1="35" y1="-145" x2="35" y2="375" stroke-width="1.8"></line><line x1="50" y1="-145" x2="50" y2="375" stroke-width="1.8"></line><line x1="65" y1="-145" x2="65" y2="375" stroke-width="1.8"></line><line x1="80" y1="-145" x2="80" y2="375" stroke-width="1.8"></line><line x1="95" y1="-145" x2="95" y2="375" stroke-width="1.8"></line><line x1="110" y1="-145" x2="110" y2="375" stroke-width="1.8"></line><line x1="125" y1="-145" x2="125" y2="375" stroke-width="1.8"></line><line x1="140" y1="-145" x2="140" y2="375" stroke-width="1.8"></line><line x1="155" y1="-145" x2="155" y2="375" stroke-width="1.8"></line><line x1="170" y1="-145" x2="170" y2="375" stroke-width="1.8"></line><line x1="185" y1="-145" x2="185" y2="375" stroke-width="1.8"></line><line x1="200" y1="-145" x2="200" y2="375" stroke-width="1.8"></line><line x1="215" y1="-145" x2="215" y2="375" stroke-width="1.8"></line><line x1="230" y1="-145" x2="230" y2="375" stroke-width="1.8"></line><line x1="245" y1="-145" x2="245" y2="375" stroke-width="1.8"></line><line x1="260" y1="-145" x2="260" y2="375" stroke-width="1.8"></line><line x1="275" y1="-145" x2="275" y2="375" stroke-width="1.8"></line><line x1="290" y1="-145" x2="290" y2="375" stroke-width="1.8"></line><line x1="305" y1="-145" x2="305" y2="375" stroke-width="1.8"></line><line x1="320" y1="-145" x2="320" y2="375" stroke-width="1.8"></line><line x1="335" y1="-145" x2="335" y2="375" stroke-width="1.8"></line><line x1="350" y1="-145" x2="350" y2="375" stroke-width="1.8"></line><line x1="-255.17" y1="19.83" x2="195.17" y2="-240.17" stroke-width="1.8"></line><line x1="-247.67" y1="32.82" x2="202.67" y2="-227.18" stroke-width="1.8"></line><line x1="-240.17" y1="45.81" x2="210.17" y2="-214.19" stroke-width="1.8"></line><line x1="-232.67" y1="58.8" x2="217.67" y2="-201.2" stroke-width="1.8"></line><line x1="-225.17" y1="71.79" x2="225.17" y2="-188.21" stroke-width="1.8"></line><line x1="-217.67" y1="84.79" x2="232.67" y2="-175.21" stroke-width="1.8"></line><line x1="-210.17" y1="97.78" x2="240.17" y2="-162.22" stroke-width="1.8"></line><line x1="-202.67" y1="110.77" x2="247.67" y2="-149.23" stroke-width="1.8"></line><line x1="-195.17" y1="123.76" x2="255.17" y2="-136.24" stroke-width="1.8"></line><line x1="-187.67" y1="136.75" x2="262.67" y2="-123.25" stroke-width="1.8"></line><line x1="-180.17" y1="149.74" x2="270.17" y2="-110.26" stroke-width="1.8"></line><line x1="-172.67" y1="162.73" x2="277.67" y2="-97.27" stroke-width="1.8"></line><line x1="-165.17" y1="175.72" x2="285.17" y2="-84.28" stroke-width="1.8"></line><line x1="-157.67" y1="188.71" x2="292.67" y2="-71.29" stroke-width="1.8"></line><line x1="-150.17" y1="201.7" x2="300.17" y2="-58.3" stroke-width="1.8"></line><line x1="-142.67" y1="214.69" x2="307.67" y2="-45.31" stroke-width="1.8"></line><line x1="-135.17" y1="227.68" x2="315.17" y2="-32.32" stroke-width="1.8"></line><line x1="-127.67" y1="240.67" x2="322.67" y2="-19.33" stroke-width="1.8"></line><line x1="-120.17" y1="253.66" x2="330.17" y2="-6.34" stroke-width="1.8"></line><line x1="-112.67" y1="266.65" x2="337.67" y2="6.65" stroke-width="1.8"></line><line x1="-105.17" y1="279.64" x2="345.17" y2="19.64" stroke-width="1.8"></line><line x1="-97.67" y1="292.63" x2="352.67" y2="32.63" stroke-width="1.8"></line><line x1="-90.17" y1="305.62" x2="360.17" y2="45.62" stroke-width="1.8"></line><line x1="-82.67" y1="318.61" x2="367.67" y2="58.61" stroke-width="1.8"></line><line x1="-75.17" y1="331.6" x2="375.17" y2="71.6" stroke-width="1.8"></line><line x1="-67.67" y1="344.59" x2="382.67" y2="84.59" stroke-width="1.8"></line><line x1="-60.17" y1="357.58" x2="390.17" y2="97.58" stroke-width="1.8"></line><line x1="-52.67" y1="370.57" x2="397.67" y2="110.57" stroke-width="1.8"></line><line x1="-45.17" y1="383.56" x2="405.17" y2="123.56" stroke-width="1.8"></line><line x1="-37.67" y1="396.55" x2="412.67" y2="136.55" stroke-width="1.8"></line><line x1="-30.17" y1="409.54" x2="420.17" y2="149.54" stroke-width="1.8"></line><line x1="-22.67" y1="422.54" x2="427.67" y2="162.54" stroke-width="1.8"></line><line x1="-15.17" y1="435.53" x2="435.17" y2="175.53" stroke-width="1.8"></line><line x1="-7.67" y1="448.52" x2="442.67" y2="188.52" stroke-width="1.8"></line><line x1="-0.17" y1="461.51" x2="450.17" y2="201.51" stroke-width="1.8"></line><line x1="-255.17" y1="210.17" x2="195.17" y2="470.17" stroke-width="1.8"></line><line x1="-247.67" y1="197.18" x2="202.67" y2="457.18" stroke-width="1.8"></line><line x1="-240.17" y1="184.19" x2="210.17" y2="444.19" stroke-width="1.8"></line><line x1="-232.67" y1="171.2" x2="217.67" y2="431.2" stroke-width="1.8"></line><line x1="-225.17" y1="158.21" x2="225.17" y2="418.21" stroke-width="1.8"></line><line x1="-217.67" y1="145.21" x2="232.67" y2="405.21" stroke-width="1.8"></line><line x1="-210.17" y1="132.22" x2="240.17" y2="392.22" stroke-width="1.8"></line><line x1="-202.67" y1="119.23" x2="247.67" y2="379.23" stroke-width="1.8"></line><line x1="-195.17" y1="106.24" x2="255.17" y2="366.24" stroke-width="1.8"></line><line x1="-187.67" y1="93.25" x2="262.67" y2="353.25" stroke-width="1.8"></line><line x1="-180.17" y1="80.26" x2="270.17" y2="340.26" stroke-width="1.8"></line><line x1="-172.67" y1="67.27" x2="277.67" y2="327.27" stroke-width="1.8"></line><line x1="-165.17" y1="54.28" x2="285.17" y2="314.28" stroke-width="1.8"></line><line x1="-157.67" y1="41.29" x2="292.67" y2="301.29" stroke-width="1.8"></line><line x1="-150.17" y1="28.3" x2="300.17" y2="288.3" stroke-width="1.8"></line><line x1="-142.67" y1="15.31" x2="307.67" y2="275.31" stroke-width="1.8"></line><line x1="-135.17" y1="2.32" x2="315.17" y2="262.32" stroke-width="1.8"></line><line x1="-127.67" y1="-10.67" x2="322.67" y2="249.33" stroke-width="1.8"></line><line x1="-120.17" y1="-23.66" x2="330.17" y2="236.34" stroke-width="1.8"></line><line x1="-112.67" y1="-36.65" x2="337.67" y2="223.35" stroke-width="1.8"></line><line x1="-105.17" y1="-49.64" x2="345.17" y2="210.36" stroke-width="1.8"></line><line x1="-97.67" y1="-62.63" x2="352.67" y2="197.37" stroke-width="1.8"></line><line x1="-90.17" y1="-75.62" x2="360.17" y2="184.38" stroke-width="1.8"></line><line x1="-82.67" y1="-88.61" x2="367.67" y2="171.39" stroke-width="1.8"></line><line x1="-75.17" y1="-101.6" x2="375.17" y2="158.4" stroke-width="1.8"></line><line x1="-67.67" y1="-114.59" x2="382.67" y2="145.41" stroke-width="1.8"></line><line x1="-60.17" y1="-127.58" x2="390.17" y2="132.42" stroke-width="1.8"></line><line x1="-52.67" y1="-140.57" x2="397.67" y2="119.43" stroke-width="1.8"></line><line x1="-45.17" y1="-153.56" x2="405.17" y2="106.44" stroke-width="1.8"></line><line x1="-37.67" y1="-166.55" x2="412.67" y2="93.45" stroke-width="1.8"></line><line x1="-30.17" y1="-179.54" x2="420.17" y2="80.46" stroke-width="1.8"></line><line x1="-22.67" y1="-192.54" x2="427.67" y2="67.46" stroke-width="1.8"></line><line x1="-15.17" y1="-205.53" x2="435.17" y2="54.47" stroke-width="1.8"></line><line x1="-7.67" y1="-218.52" x2="442.67" y2="41.48" stroke-width="1.8"></line><line x1="-0.17" y1="-231.51" x2="450.17" y2="28.49" stroke-width="1.8"></line>
</g></svg>