<svg xmlns="http://www.w3.org/2000/svg" width="200" height="230" viewBox="0 0 200 230">
  <defs><clipPath id="hx"><path d="M93.07,27 A8,8 0 0 0 106.93,27 L172.75,65 A8,8 0 0 0 179.67,77 L179.67,153 A8,8 0 0 0 172.75,165 L106.93,203 A8,8 0 0 0 93.07,203 L27.25,165 A8,8 0 0 0 20.33,153 L20.33,77 A8,8 0 0 0 27.25,65 Z"></path></clipPath></defs>
  <g clip-path="url(#hx)" fill="none" stroke="#FF595E"><line x1="100" y1="115" x2="100" y2="19" stroke-width="2"></line><line x1="100" y1="115" x2="119.96" y2="21.1" stroke-width="2"></line><line x1="100" y1="115" x2="139.05" y2="27.3" stroke-width="2"></line><line x1="100" y1="115" x2="156.43" y2="37.33" stroke-width="2"></line><line x1="100" y1="115" x2="171.34" y2="50.76" stroke-width="2"></line><line x1="100" y1="115" x2="183.14" y2="67" stroke-width="2"></line><line x1="100" y1="115" x2="191.3" y2="85.33" stroke-width="2"></line><line x1="100" y1="115" x2="195.47" y2="104.97" stroke-width="2"></line><line x1="100" y1="115" x2="195.47" y2="125.03" stroke-width="2"></line><line x1="100" y1="115" x2="191.3" y2="144.67" stroke-width="2"></line><line x1="100" y1="115" x2="183.14" y2="163" stroke-width="2"></line><line x1="100" y1="115" x2="171.34" y2="179.24" stroke-width="2"></line><line x1="100" y1="115" x2="156.43" y2="192.67" stroke-width="2"></line><line x1="100" y1="115" x2="139.05" y2="202.7" stroke-width="2"></line><line x1="100" y1="115" x2="119.96" y2="208.9" stroke-width="2"></line><line x1="100" y1="115" x2="100" y2="211" stroke-width="2"></line><line x1="100" y1="115" x2="80.04" y2="208.9" stroke-width="2"></line><line x1="100" y1="115" x2="60.95" y2="202.7" stroke-width="2"></line><line x1="100" y1="115" x2="43.57" y2="192.67" stroke-width="2"></line><line x1="100" y1="115" x2="28.66" y2="179.24" stroke-width="2"></line><line x1="100" y1="115" x2="16.86" y2="163" stroke-width="2"></line><line x1="100" y1="115" x2="8.7" y2="144.67" stroke-width="2"></line><line x1="100" y1="115" x2="4.53" y2="125.03" stroke-width="2"></line><line x1="100" y1="115" x2="4.53" y2="104.97" stroke-width="2"></line><line x1="100" y1="115" x2="8.7" y2="85.33" stroke-width="2"></line><line x1="100" y1="115" x2="16.86" y2="67" stroke-width="2"></line><line x1="100" y1="115" x2="28.66" y2="50.76" stroke-width="2"></line><line x1="100" y1="115" x2="43.57" y2="37.33" stroke-width="2"></line><line x1="100" y1="115" x2="60.95" y2="27.3" stroke-width="2"></line><line x1="100" y1="115" x2="80.04" y2="21.1" stroke-width="2"></line></g>
</svg>