<svg xmlns="http://www.w3.org/2000/svg" width="200" height="230" viewBox="0 0 200 230">
  <defs><clipPath id="hx"><path d="M93.07,27 A8,8 0 0 0 106.93,27 L172.75,65 A8,8 0 0 0 179.67,77 L179.67,153 A8,8 0 0 0 172.75,165 L106.93,203 A8,8 0 0 0 93.07,203 L27.25,165 A8,8 0 0 0 20.33,153 L20.33,77 A8,8 0 0 0 27.25,65 Z"></path></clipPath></defs>
  <g clip-path="url(#hx)" fill="none" stroke="#FAF8F6">
<line x1="-300" y1="-600" x2="500" y2="200" stroke-width="3.2"></line><line x1="-300" y1="-588" x2="500" y2="212" stroke-width="2"></line><line x1="-300" y1="-576" x2="500" y2="224" stroke-width="1.4"></line><line x1="-300" y1="-564" x2="500" y2="236" stroke-width="3.2"></line><line x1="-300" y1="-552" x2="500" y2="248" stroke-width="2"></line><line x1="-300" y1="-540" x2="500" y2="260" stroke-width="1.4"></line><line x1="-300" y1="-528" x2="500" y2="272" stroke-width="3.2"></line><line x1="-300" y1="-516" x2="500" y2="284" stroke-width="2"></line><line x1="-300" y1="-504" x2="500" y2="296" stroke-width="1.4"></line><line x1="-300" y1="-492" x2="500" y2="308" stroke-width="3.2"></line><line x1="-300" y1="-480" x2="500" y2="320" stroke-width="2"></line><line x1="-300" y1="-468" x2="500" y2="332" stroke-width="1.4"></line><line x1="-300" y1="-456" x2="500" y2="344" stroke-width="3.2"></line><line x1="-300" y1="-444" x2="500" y2="356" stroke-width="2"></line><line x1="-300" y1="-432" x2="500" y2="368" stroke-width="1.4"></line><line x1="-300" y1="-420" x2="500" y2="380" stroke-width="3.2"></line><line x1="-300" y1="-408" x2="500" y2="392" stroke-width="2"></line><line x1="-300" y1="-396" x2="500" y2="404" stroke-width="1.4"></line><line x1="-300" y1="-384" x2="500" y2="416" stroke-width="3.2"></line><line x1="-300" y1="-372" x2="500" y2="428" stroke-width="2"></line><line x1="-300" y1="-360" x2="500" y2="440" stroke-width="1.4"></line><line x1="-300" y1="-348" x2="500" y2="452" stroke-width="3.2"></line><line x1="-300" y1="-336" x2="500" y2="464" stroke-width="2"></line><line x1="-300" y1="-324" x2="500" y2="476" stroke-width="1.4"></line><line x1="-300" y1="-312" x2="500" y2="488" stroke-width="3.2"></line><line x1="-300" y1="-300" x2="500" y2="500" stroke-width="2"></line><line x1="-300" y1="-288" x2="500" y2="512" stroke-width="1.4"></line><line x1="-300" y1="-276" x2="500" y2="524" stroke-width="3.2"></line><line x1="-300" y1="-264" x2="500" y2="536" stroke-width="2"></line><line x1="-300" y1="-252" x2="500" y2="548" stroke-width="1.4"></line><line x1="-300" y1="-240" x2="500" y2="560" stroke-width="3.2"></line><line x1="-300" y1="-228" x2="500" y2="572" stroke-width="2"></line><line x1="-300" y1="-216" x2="500" y2="584" stroke-width="1.4"></line><line x1="-300" y1="-204" x2="500" y2="596" stroke-width="3.2"></line><line x1="-300" y1="-192" x2="500" y2="608" stroke-width="2"></line><line x1="-300" y1="-180" x2="500" y2="620" stroke-width="1.4"></line><line x1="-300" y1="-168" x2="500" y2="632" stroke-width="3.2"></line><line x1="-300" y1="-156" x2="500" y2="644" stroke-width="2"></line><line x1="-300" y1="-144" x2="500" y2="656" stroke-width="1.4"></line><line x1="-300" y1="-132" x2="500" y2="668" stroke-width="3.2"></line><line x1="-300" y1="-120" x2="500" y2="680" stroke-width="2"></line><line x1="-300" y1="-108" x2="500" y2="692" stroke-width="1.4"></line><line x1="-300" y1="-96" x2="500" y2="704" stroke-width="3.2"></line><line x1="-300" y1="-84" x2="500" y2="716" stroke-width="2"></line><line x1="-300" y1="-72" x2="500" y2="728" stroke-width="1.4"></line><line x1="-300" y1="-60" x2="500" y2="740" stroke-width="3.2"></line><line x1="-300" y1="-48" x2="500" y2="752" stroke-width="2"></line><line x1="-300" y1="-36" x2="500" y2="764" stroke-width="1.4"></line><line x1="-300" y1="-24" x2="500" y2="776" stroke-width="3.2"></line><line x1="-300" y1="-12" x2="500" y2="788" stroke-width="2"></line><line x1="-300" y1="0" x2="500" y2="800" stroke-width="1.4"></line><line x1="-300" y1="12" x2="500" y2="812" stroke-width="3.2"></line><line x1="-300" y1="24" x2="500" y2="824" stroke-width="2"></line><line x1="-300" y1="36" x2="500" y2="836" stroke-width="1.4"></line><line x1="-300" y1="48" x2="500" y2="848" stroke-width="3.2"></line><line x1="-300" y1="60" x2="500" y2="860" stroke-width="2"></line><line x1="-300" y1="72" x2="500" y2="872" stroke-width="1.4"></line><line x1="-300" y1="84" x2="500" y2="884" stroke-width="3.2"></line><line x1="-300" y1="96" x2="500" y2="896" stroke-width="2"></line>
</g></svg>